<svg xmlns="http://www.w3.org/2000/svg" width="209pt" height="209pt" viewBox="0 0 209 209"><path d="M176 464v-80h80v80Zm0 0" style="fill-rule:evenodd;fill:#000;fill-opacity:1;stroke-width:.4;stroke-linecap:butt;stroke-linejoin:round;stroke:#000;stroke-opacity:1;stroke-miterlimit:10" transform="matrix(1 0 0 -1 -175 529)"/><path d="M240 400v-80h80v80ZM240 528v-80h80v80Zm0 0" style="fill-rule:evenodd;fill:#000;fill-opacity:1;stroke-width:.4;stroke-linecap:butt;stroke-linejoin:round;stroke:#000;stroke-opacity:1;stroke-miterlimit:10" transform="matrix(1 0 0 -1 -175 529)"/><path d="M304 464v-80h80v80Zm0 0" style="fill-rule:evenodd;fill:#000;fill-opacity:1;stroke-width:.4;stroke-linecap:butt;stroke-linejoin:round;stroke:#000;stroke-opacity:1;stroke-miterlimit:10" transform="matrix(1 0 0 -1 -175 529)"/><path d="M240 464v-80h80v80Zm0 0" style="fill-rule:evenodd;fill:#000;fill-opacity:1;stroke-width:.4;stroke-linecap:butt;stroke-linejoin:round;stroke:#000;stroke-opacity:1;stroke-miterlimit:10" transform="matrix(1 0 0 -1 -175 529)"/><path d="M192 448v-48h48v48Zm0 0" style="fill-rule:evenodd;fill:violet;fill-opacity:1;stroke-width:.4;stroke-linecap:butt;stroke-linejoin:round;stroke:violet;stroke-opacity:1;stroke-miterlimit:10" transform="matrix(1 0 0 -1 -175 529)"/><path d="M256 448v-48h48v48Zm0 0" style="fill-rule:evenodd;fill:#0f0;fill-opacity:1;stroke-width:.4;stroke-linecap:butt;stroke-linejoin:round;stroke:#0f0;stroke-opacity:1;stroke-miterlimit:10" transform="matrix(1 0 0 -1 -175 529)"/><path d="M256 512v-48h48v48Zm0 0" style="fill-rule:evenodd;fill:#ff0;fill-opacity:1;stroke-width:.4;stroke-linecap:butt;stroke-linejoin:round;stroke:#ff0;stroke-opacity:1;stroke-miterlimit:10" transform="matrix(1 0 0 -1 -175 529)"/><path d="M256 384v-48h48v48Zm0 0" style="fill-rule:evenodd;fill:#00f;fill-opacity:1;stroke-width:.4;stroke-linecap:butt;stroke-linejoin:round;stroke:#00f;stroke-opacity:1;stroke-miterlimit:10" transform="matrix(1 0 0 -1 -175 529)"/><path d="M320 448v-48h48v48Zm0 0" style="fill-rule:evenodd;fill:red;fill-opacity:1;stroke-width:.4;stroke-linecap:butt;stroke-linejoin:round;stroke:red;stroke-opacity:1;stroke-miterlimit:10" transform="matrix(1 0 0 -1 -175 529)"/></svg>