<?xml version="1.0" encoding="UTF-8"?>
<svg xmlns="http://www.w3.org/2000/svg" xmlns:xlink="http://www.w3.org/1999/xlink" width="209pt" height="209pt" viewBox="0 0 209 209" version="1.1">
<g id="surface4567">
<path style="fill-rule:evenodd;fill:rgb(0%,0%,0%);fill-opacity:1;stroke-width:0.4;stroke-linecap:butt;stroke-linejoin:round;stroke:rgb(0%,0%,0%);stroke-opacity:1;stroke-miterlimit:10;" d="M 176 464 L 176 384 L 256 384 L 256 464 Z M 176 464 " transform="matrix(1,0,0,-1,-175,529)"/>
<path style="fill-rule:evenodd;fill:rgb(0%,0%,0%);fill-opacity:1;stroke-width:0.4;stroke-linecap:butt;stroke-linejoin:round;stroke:rgb(0%,0%,0%);stroke-opacity:1;stroke-miterlimit:10;" d="M 240 400 L 240 320 L 320 320 L 320 400 Z M 240 400 " transform="matrix(1,0,0,-1,-175,529)"/>
<path style="fill-rule:evenodd;fill:rgb(0%,0%,0%);fill-opacity:1;stroke-width:0.4;stroke-linecap:butt;stroke-linejoin:round;stroke:rgb(0%,0%,0%);stroke-opacity:1;stroke-miterlimit:10;" d="M 240 528 L 240 448 L 320 448 L 320 528 Z M 240 528 " transform="matrix(1,0,0,-1,-175,529)"/>
<path style="fill-rule:evenodd;fill:rgb(0%,0%,0%);fill-opacity:1;stroke-width:0.4;stroke-linecap:butt;stroke-linejoin:round;stroke:rgb(0%,0%,0%);stroke-opacity:1;stroke-miterlimit:10;" d="M 304 464 L 304 384 L 384 384 L 384 464 Z M 304 464 " transform="matrix(1,0,0,-1,-175,529)"/>
<path style="fill-rule:evenodd;fill:rgb(0%,0%,0%);fill-opacity:1;stroke-width:0.4;stroke-linecap:butt;stroke-linejoin:round;stroke:rgb(0%,0%,0%);stroke-opacity:1;stroke-miterlimit:10;" d="M 240 464 L 240 384 L 320 384 L 320 464 Z M 240 464 " transform="matrix(1,0,0,-1,-175,529)"/>
<path style="fill-rule:evenodd;fill:rgb(93.3%,51%,93.3%);fill-opacity:1;stroke-width:0.4;stroke-linecap:butt;stroke-linejoin:round;stroke:rgb(93.3%,51%,93.3%);stroke-opacity:1;stroke-miterlimit:10;" d="M 192 448 L 192 400 L 240 400 L 240 448 Z M 192 448 " transform="matrix(1,0,0,-1,-175,529)"/>
<path style="fill-rule:evenodd;fill:rgb(0%,100%,0%);fill-opacity:1;stroke-width:0.4;stroke-linecap:butt;stroke-linejoin:round;stroke:rgb(0%,100%,0%);stroke-opacity:1;stroke-miterlimit:10;" d="M 256 448 L 256 400 L 304 400 L 304 448 Z M 256 448 " transform="matrix(1,0,0,-1,-175,529)"/>
<path style="fill-rule:evenodd;fill:rgb(100%,100%,0%);fill-opacity:1;stroke-width:0.4;stroke-linecap:butt;stroke-linejoin:round;stroke:rgb(100%,100%,0%);stroke-opacity:1;stroke-miterlimit:10;" d="M 256 512 L 256 464 L 304 464 L 304 512 Z M 256 512 " transform="matrix(1,0,0,-1,-175,529)"/>
<path style="fill-rule:evenodd;fill:rgb(0%,0%,100%);fill-opacity:1;stroke-width:0.4;stroke-linecap:butt;stroke-linejoin:round;stroke:rgb(0%,0%,100%);stroke-opacity:1;stroke-miterlimit:10;" d="M 256 384 L 256 336 L 304 336 L 304 384 Z M 256 384 " transform="matrix(1,0,0,-1,-175,529)"/>
<path style="fill-rule:evenodd;fill:rgb(100%,0%,0%);fill-opacity:1;stroke-width:0.4;stroke-linecap:butt;stroke-linejoin:round;stroke:rgb(100%,0%,0%);stroke-opacity:1;stroke-miterlimit:10;" d="M 320 448 L 320 400 L 368 400 L 368 448 Z M 320 448 " transform="matrix(1,0,0,-1,-175,529)"/>
</g>
</svg>
