<svg xmlns="http://www.w3.org/2000/svg" xmlns:ns11="http://www.iki.fi/pav/software/textext/" width="308.785" height="193.888" viewBox="0 0 81.699 51.3"><defs><marker id="d" markerHeight="1" markerWidth="1" orient="auto-start-reverse" preserveAspectRatio="xMidYMid" refX="0" refY="0" style="overflow:visible" viewBox="0 0 1 1"><path d="M-.211-4.106 6.21-.894a1 1 90 0 1 0 1.788L-.21 4.106A1.236 1.236 31.717 0 1-2 3v-6A1.236 1.236 148.283 0 1-.211-4.106" style="fill:context-stroke;fill-rule:evenodd;stroke:none" transform="scale(.7)"/></marker><marker id="c" markerHeight="1" markerWidth="1" orient="auto-start-reverse" preserveAspectRatio="xMidYMid" refX="0" refY="0" style="overflow:visible" viewBox="0 0 1 1"><path d="M-.211-4.106 6.21-.894a1 1 90 0 1 0 1.788L-.21 4.106A1.236 1.236 31.717 0 1-2 3v-6A1.236 1.236 148.283 0 1-.211-4.106" style="fill:context-stroke;fill-rule:evenodd;stroke:none" transform="scale(.7)"/></marker><marker id="b" markerHeight=".5" markerWidth=".5" orient="auto" preserveAspectRatio="xMidYMid" refX="0" refY="0" style="overflow:visible" viewBox="0 0 1 1"><path d="M5 0c0 2.76-2.24 5-5 5s-5-2.24-5-5 2.3-5 5-5c2.76 0 5 2.24 5 5" style="fill:context-stroke;fill-rule:evenodd;stroke:none" transform="scale(.5)"/></marker><marker id="a" markerHeight=".5" markerWidth=".5" orient="auto" preserveAspectRatio="xMidYMid" refX="0" refY="0" style="overflow:visible" viewBox="0 0 1 1"><path d="M5 0c0 2.76-2.24 5-5 5s-5-2.24-5-5 2.3-5 5-5c2.76 0 5 2.24 5 5" style="fill:context-stroke;fill-rule:evenodd;stroke:none" transform="scale(.5)"/></marker></defs><path d="M75 100c-9 0-18 0-21 4.167s0 12.5 2.833 18.333 5.5 9.167 8.167 12.5" style="fill:none;stroke:#000;stroke-width:.7;stroke-linejoin:bevel;stroke-dasharray:none;marker-start:url(#a);marker-end:url(#b)" transform="translate(-9.721 -94.79)"/><path d="M60 100h30" style="fill:none;stroke:#000;stroke-width:.3;stroke-linejoin:bevel;stroke-dasharray:.3,.3;stroke-dashoffset:0;marker-end:url(#c)" transform="translate(-9.721 -94.79)"/><path d="m55.268 123.408 18.306 21.55" style="fill:none;stroke:#000;stroke-width:.3;stroke-linejoin:bevel;stroke-dasharray:.3,.3;stroke-dashoffset:0;marker-end:url(#d)" transform="translate(-9.721 -94.79)"/><g ns11:alignment="middle center" ns11:inkscapeversion="1.4" ns11:jacobian_sqrt=".353" ns11:pdfconverter="inkscape" ns11:preamble="/Users/laci/Library/Application Support/org.inkscape.Inkscape/config/inkscape/extensions/textext/default_packages.tex" ns11:scale="1" ns11:texconverter="pdflatex" ns11:text="$\\text{start angle}$" ns11:version="1.11.0"><path d="M57.335 2.632c.077.016.363.071.363.325 0 .176-.121.32-.397.32-.297 0-.424-.199-.49-.502-.011-.044-.011-.055-.05-.055-.044 0-.044.022-.044.082v.469c0 .06 0 .083.039.083.016 0 .022-.006.088-.072.005-.005.005-.011.072-.077a.54.54 0 0 0 .385.149c.403 0 .568-.237.568-.49a.44.44 0 0 0-.149-.332c-.115-.115-.253-.143-.402-.17-.198-.04-.43-.083-.43-.287 0-.127.088-.27.391-.27.386 0 .408.32.414.424 0 .033.033.033.038.033.05 0 .05-.016.05-.082V1.82c0-.055 0-.082-.039-.082-.016 0-.027 0-.071.044a1 1 0 0 1-.06.055c-.133-.1-.276-.1-.332-.1-.43 0-.562.238-.562.436 0 .121.055.22.149.298.116.088.215.11.469.16M58.594 1.91h.507V1.8h-.507v-.646h-.088c0 .287-.105.662-.452.678v.078h.297v.97c0 .43.331.474.458.474.248 0 .347-.248.347-.474V2.68h-.088v.193c0 .26-.105.391-.237.391-.237 0-.237-.32-.237-.38zM60.523 3.05c.017.138.11.287.276.287.077 0 .292-.05.292-.336v-.199h-.088v.199c0 .204-.089.226-.127.226-.116 0-.132-.16-.132-.176v-.7c0-.15 0-.287-.127-.42a.67.67 0 0 0-.48-.192c-.292 0-.534.165-.534.397 0 .104.071.165.165.165.1 0 .16-.072.16-.16 0-.044-.017-.16-.182-.16.1-.127.27-.165.38-.165.177 0 .375.138.375.452v.127c-.182.01-.424.022-.645.126-.265.122-.353.304-.353.458 0 .286.342.375.563.375a.49.49 0 0 0 .457-.303m-.022-.578v.353c0 .33-.254.452-.413.452-.171 0-.315-.122-.315-.298 0-.193.15-.485.728-.507M61.701 2.147V1.76l-.49.038v.11c.248 0 .275.023.275.199v.943c0 .154-.038.154-.275.154v.11c.138-.005.303-.01.402-.01.138 0 .303 0 .447.01v-.11h-.077c-.26 0-.265-.039-.265-.166V2.5c0-.347.149-.661.413-.661q.032-.001.039.005c-.011 0-.083.044-.083.138s.077.149.155.149c.06 0 .148-.044.148-.154s-.11-.215-.259-.215c-.259 0-.385.237-.43.386M63.095 1.91h.507V1.8h-.507v-.646h-.089c0 .287-.104.662-.452.678v.078h.298v.97c0 .43.33.474.458.474.248 0 .347-.248.347-.474V2.68h-.088v.193c0 .26-.105.391-.237.391-.237 0-.237-.32-.237-.38zM66.194 3.05c.016.138.11.287.276.287.077 0 .292-.05.292-.336v-.199h-.088v.199c0 .204-.089.226-.127.226-.116 0-.133-.16-.133-.176v-.7c0-.15 0-.287-.126-.42a.67.67 0 0 0-.48-.192c-.292 0-.535.165-.535.397 0 .104.072.165.166.165.099 0 .16-.072.16-.16 0-.044-.017-.16-.182-.16.099-.127.27-.165.38-.165.176 0 .375.138.375.452v.127c-.182.01-.425.022-.645.126-.265.122-.353.304-.353.458 0 .286.342.375.562.375a.49.49 0 0 0 .458-.303m-.022-.578v.353c0 .33-.254.452-.414.452-.17 0-.314-.122-.314-.298 0-.193.15-.485.728-.507M67.169 2.108v.943c0 .154-.039.154-.276.154v.11c.127-.005.303-.01.403-.01.088 0 .27.005.39.01v-.11c-.236 0-.275 0-.275-.154V2.4c0-.365.254-.563.474-.563.226 0 .265.187.265.391v.822c0 .154-.039.154-.276.154v.11c.122-.005.303-.01.397-.01.088 0 .276.005.392.01v-.11c-.182 0-.27 0-.27-.105v-.672c0-.304 0-.408-.11-.535-.05-.06-.166-.132-.37-.132-.26 0-.425.149-.524.369v-.37l-.496.04v.11c.248 0 .276.022.276.198M69.518 2.709c-.308 0-.308-.353-.308-.43 0-.094.005-.21.055-.298a.32.32 0 0 1 .253-.138c.303 0 .303.348.303.43 0 .094 0 .21-.055.298a.31.31 0 0 1-.248.138m-.408.138c0-.011 0-.094.055-.166.138.1.287.11.353.11.325 0 .568-.242.568-.512a.47.47 0 0 0-.143-.342.46.46 0 0 1 .314-.138c.01 0 .027 0 .038.006-.038.01-.06.05-.06.093 0 .061.05.1.105.1.033 0 .099-.022.099-.105 0-.06-.039-.17-.177-.17a.55.55 0 0 0-.374.164.58.58 0 0 0-.37-.126c-.33 0-.573.242-.573.512 0 .155.077.287.165.364a.48.48 0 0 0-.11.292c0 .11.05.243.16.314-.215.056-.325.21-.325.348 0 .253.347.446.777.446.413 0 .777-.176.777-.452a.45.45 0 0 0-.226-.402c-.187-.094-.391-.094-.606-.094-.088 0-.237 0-.265-.005-.11-.017-.182-.122-.182-.237m.507 1.113c-.358 0-.6-.182-.6-.37 0-.16.132-.291.286-.297h.21c.303 0 .694 0 .694.298 0 .193-.248.369-.59.369M71.116.873l-.508.039v.11c.249 0 .276.022.276.198v1.83c0 .155-.038.155-.276.155v.11c.116-.005.304-.01.392-.01s.259.005.391.01v-.11c-.237 0-.275 0-.275-.154zM71.86 2.428c.023-.524.32-.612.442-.612.358 0 .396.474.396.612zm0 .077h.982c.077 0 .088 0 .088-.077 0-.348-.193-.69-.628-.69-.408 0-.734.364-.734.805 0 .469.37.81.772.81.43 0 .59-.39.59-.457 0-.033-.028-.044-.05-.044-.027 0-.038.022-.044.05-.121.363-.44.363-.474.363a.47.47 0 0 1-.397-.237c-.104-.165-.104-.396-.104-.523m0 0"/></g><g ns11:alignment="middle center" ns11:inkscapeversion="1.4" ns11:jacobian_sqrt=".353" ns11:pdfconverter="inkscape" ns11:preamble="/Users/laci/Library/Application Support/org.inkscape.Inkscape/config/inkscape/extensions/textext/default_packages.tex" ns11:scale="1" ns11:texconverter="pdflatex" ns11:text="$\\text{end angle}$" ns11:version="1.11.0"><path d="M57.849 39.358c.022-.523.32-.612.44-.612.359 0 .397.474.397.612zm0 .077h.98c.078 0 .089 0 .089-.077 0-.347-.193-.689-.628-.689-.408 0-.734.364-.734.805 0 .469.37.81.772.81.43 0 .59-.391.59-.457 0-.033-.028-.044-.05-.044-.027 0-.038.022-.044.05-.121.363-.44.363-.474.363a.47.47 0 0 1-.397-.237c-.104-.165-.104-.397-.104-.524M59.405 39.039v.942c0 .155-.039.155-.276.155v.11c.127-.006.303-.011.403-.011.088 0 .27.005.391.01v-.11c-.237 0-.276 0-.276-.154v-.65c0-.364.254-.563.474-.563.226 0 .265.188.265.392v.821c0 .155-.039.155-.276.155v.11c.122-.006.304-.011.397-.011.088 0 .276.005.392.01v-.11c-.182 0-.27 0-.27-.104v-.673c0-.303 0-.408-.11-.534-.05-.061-.166-.133-.37-.133-.26 0-.424.15-.524.37v-.37l-.496.039v.11c.248 0 .276.022.276.199M62.306 40.053v.231l.518-.038v-.11c-.243 0-.276-.023-.276-.199v-2.133l-.501.038v.11c.242 0 .27.023.27.2v.76a.56.56 0 0 0-.441-.22.796.796 0 0 0-.783.799c0 .446.342.793.744.793.226 0 .38-.12.469-.231m0-.943v.722c0 .061 0 .066-.039.127a.48.48 0 0 1-.413.248c-.16 0-.287-.094-.37-.226-.088-.143-.099-.342-.099-.49 0-.127.006-.337.105-.497a.49.49 0 0 1 .402-.226c.122 0 .27.056.375.21.039.06.039.066.039.132M65.263 39.981c.017.138.11.287.276.287.077 0 .292-.05.292-.336v-.199h-.088v.199c0 .204-.088.226-.127.226-.116 0-.132-.16-.132-.177v-.7c0-.149 0-.287-.127-.419a.67.67 0 0 0-.48-.193c-.292 0-.534.166-.534.397 0 .105.071.166.165.166.1 0 .16-.072.16-.16 0-.044-.017-.16-.182-.16.1-.127.27-.166.38-.166.177 0 .375.138.375.452v.127c-.182.011-.424.022-.645.127-.264.121-.352.303-.352.458 0 .286.341.374.562.374a.49.49 0 0 0 .457-.303m-.022-.579v.353c0 .33-.253.452-.413.452-.171 0-.314-.121-.314-.297 0-.193.148-.486.727-.508M66.238 39.039v.942c0 .155-.038.155-.275.155v.11c.126-.006.303-.011.402-.011.088 0 .27.005.391.01v-.11c-.237 0-.275 0-.275-.154v-.65c0-.364.253-.563.474-.563.226 0 .264.188.264.392v.821c0 .155-.038.155-.275.155v.11c.12-.006.303-.011.397-.011.088 0 .275.005.39.01v-.11c-.181 0-.27 0-.27-.104v-.673c0-.303 0-.408-.11-.534-.049-.061-.165-.133-.369-.133-.259 0-.424.15-.523.37v-.37l-.496.039v.11c.248 0 .275.022.275.199M68.588 39.64c-.31 0-.31-.353-.31-.43 0-.094.006-.21.056-.298a.32.32 0 0 1 .254-.138c.303 0 .303.347.303.43 0 .094 0 .21-.055.298a.31.31 0 0 1-.248.137m-.408.137c0-.01 0-.093.055-.165.138.1.286.11.353.11.325 0 .567-.242.567-.513a.47.47 0 0 0-.143-.341.46.46 0 0 1 .314-.138c.011 0 .028 0 .039.005-.039.011-.06.05-.06.094 0 .06.049.1.104.1.033 0 .1-.023.1-.105 0-.061-.04-.171-.177-.171a.55.55 0 0 0-.375.165.58.58 0 0 0-.37-.127c-.33 0-.573.243-.573.513 0 .154.078.287.166.364a.48.48 0 0 0-.11.292c0 .11.05.242.16.314-.216.055-.326.21-.326.347 0 .254.347.447.777.447.414 0 .778-.177.778-.452a.45.45 0 0 0-.226-.403c-.188-.093-.392-.093-.607-.093-.088 0-.237 0-.264-.006-.11-.016-.182-.121-.182-.237m.507 1.114c-.358 0-.601-.182-.601-.37 0-.16.132-.292.287-.297h.21c.302 0 .694 0 .694.297 0 .193-.248.37-.59.37M70.185 37.804l-.507.038v.11c.248 0 .275.023.275.2v1.83c0 .154-.038.154-.275.154v.11c.116-.006.303-.011.391-.011s.26.005.392.01v-.11c-.237 0-.276 0-.276-.154zM70.93 39.358c.022-.523.32-.612.44-.612.36 0 .398.474.398.612zm0 .077h.981c.077 0 .088 0 .088-.077 0-.347-.193-.689-.628-.689-.408 0-.733.364-.733.805 0 .469.37.81.771.81.43 0 .59-.391.59-.457 0-.033-.027-.044-.05-.044-.027 0-.038.022-.043.05-.122.363-.441.363-.474.363a.47.47 0 0 1-.397-.237c-.105-.165-.105-.397-.105-.524m0 0"/></g><path d="m59.99 109.99 19.979 9.374" style="fill:none;stroke:#000;stroke-width:.3;stroke-linejoin:bevel;stroke-dasharray:.3,.3;stroke-dashoffset:0;marker-end:url(#c)" transform="translate(-6.711 -91.781)"/><g ns11:alignment="middle center" ns11:inkscapeversion="1.4" ns11:jacobian_sqrt=".353" ns11:pdfconverter="inkscape" ns11:preamble="/Users/laci/Library/Application Support/org.inkscape.Inkscape/config/inkscape/extensions/textext/default_packages.tex" ns11:scale="1" ns11:texconverter="pdflatex" ns11:text="$\\text{facing angle}$" ns11:version="1.11.0"><path d="M63.257 19.658v-.408c0-.308.166-.48.32-.48.011 0 .066 0 .116.028a.16.16 0 0 0-.105.15c0 .076.055.148.154.148.1 0 .155-.072.155-.154 0-.133-.133-.248-.32-.248a.55.55 0 0 0-.546.562v.402h-.275v.11h.275v1.142c0 .154-.038.154-.27.154v.11c.138-.005.303-.01.397-.01.143 0 .309 0 .447.01v-.11h-.072c-.26 0-.265-.039-.265-.166v-1.13h.397v-.11zM64.883 20.91c.016.137.11.286.275.286.077 0 .292-.05.292-.336v-.199h-.088v.199c0 .204-.088.226-.127.226-.115 0-.132-.16-.132-.176v-.7c0-.15 0-.287-.127-.42a.67.67 0 0 0-.48-.192c-.291 0-.534.165-.534.396 0 .105.072.166.166.166.099 0 .16-.072.16-.16 0-.044-.017-.16-.183-.16.1-.127.27-.165.38-.165.177 0 .376.138.376.452v.127c-.182.01-.425.022-.645.126-.265.122-.353.304-.353.458 0 .286.342.375.562.375a.49.49 0 0 0 .458-.303m-.022-.58v.354c0 .33-.254.452-.414.452-.17 0-.314-.122-.314-.298 0-.193.149-.485.728-.507M65.885 20.408c0-.573.286-.722.474-.722.033 0 .253.005.375.132-.144.011-.166.116-.166.16 0 .094.066.16.16.16s.165-.055.165-.166c0-.237-.27-.374-.54-.374-.44 0-.76.38-.76.815 0 .452.347.8.755.8a.584.584 0 0 0 .584-.458c0-.033-.039-.033-.05-.033-.027 0-.038.011-.044.033-.099.325-.33.37-.457.37-.188 0-.496-.15-.496-.717M67.656 19.62l-.49.038v.11c.225 0 .258.023.258.193v.949c0 .154-.038.154-.275.154v.11c.11-.005.303-.01.386-.01q.188.001.369.01v-.11c-.237 0-.248-.017-.248-.154zm.011-.612a.18.18 0 0 0-.182-.188.19.19 0 0 0-.187.188.19.19 0 0 0 .187.187c.1 0 .182-.077.182-.187M68.395 19.967v.943c0 .154-.038.154-.275.154v.11c.127-.005.303-.01.402-.01.088 0 .27.005.392.01v-.11c-.237 0-.276 0-.276-.154v-.65c0-.365.253-.563.474-.563.226 0 .265.187.265.391v.822c0 .154-.039.154-.276.154v.11c.121-.005.303-.01.397-.01.088 0 .275.005.391.01v-.11c-.182 0-.27 0-.27-.105v-.672c0-.304 0-.408-.11-.535-.05-.06-.166-.132-.37-.132-.259 0-.424.148-.523.369v-.37l-.496.04v.11c.248 0 .275.022.275.198M70.745 20.568c-.309 0-.309-.353-.309-.43 0-.094.006-.21.055-.298a.32.32 0 0 1 .254-.138c.303 0 .303.348.303.43 0 .094 0 .21-.055.298a.31.31 0 0 1-.248.138m-.408.138c0-.011 0-.094.055-.166.138.1.287.11.353.11.325 0 .568-.242.568-.512a.47.47 0 0 0-.144-.342.46.46 0 0 1 .315-.138c.01 0 .027 0 .038.006-.038.01-.06.05-.06.093 0 .061.05.1.104.1.033 0 .1-.022.1-.105 0-.06-.04-.17-.177-.17a.55.55 0 0 0-.375.164.58.58 0 0 0-.37-.126c-.33 0-.572.242-.572.512 0 .155.077.287.165.364a.48.48 0 0 0-.11.292c0 .11.05.243.16.314-.215.056-.326.21-.326.348 0 .253.348.446.778.446.413 0 .777-.176.777-.452a.45.45 0 0 0-.226-.402c-.188-.094-.392-.094-.607-.094-.088 0-.237 0-.264-.005-.11-.017-.182-.122-.182-.237m.507 1.113c-.358 0-.6-.182-.6-.37 0-.16.132-.291.286-.297h.21c.303 0 .694 0 .694.298 0 .193-.248.369-.59.369M74.058 20.91c.017.137.11.286.276.286.077 0 .292-.05.292-.336v-.199h-.088v.199c0 .204-.088.226-.127.226-.116 0-.132-.16-.132-.176v-.7c0-.15 0-.287-.127-.42a.67.67 0 0 0-.48-.192c-.292 0-.534.165-.534.396 0 .105.072.166.165.166.1 0 .16-.072.16-.16 0-.044-.016-.16-.182-.16.1-.127.27-.165.38-.165.177 0 .375.138.375.452v.127c-.181.01-.424.022-.645.126-.264.122-.352.304-.352.458 0 .286.341.375.562.375a.49.49 0 0 0 .457-.303m-.022-.58v.354c0 .33-.253.452-.413.452-.17 0-.314-.122-.314-.298 0-.193.149-.485.727-.507M75.033 19.967v.943c0 .154-.039.154-.276.154v.11c.127-.005.303-.01.403-.01.088 0 .27.005.391.01v-.11c-.237 0-.276 0-.276-.154v-.65c0-.365.254-.563.474-.563.226 0 .265.187.265.391v.822c0 .154-.039.154-.276.154v.11c.122-.005.304-.01.397-.01.089 0 .276.005.392.01v-.11c-.182 0-.27 0-.27-.105v-.672c0-.304 0-.408-.11-.535-.05-.06-.166-.132-.37-.132-.259 0-.424.148-.524.369v-.37l-.496.04v.11c.248 0 .276.022.276.198M77.382 20.568c-.308 0-.308-.353-.308-.43 0-.094.005-.21.055-.298a.32.32 0 0 1 .253-.138c.304 0 .304.348.304.43 0 .094 0 .21-.056.298a.31.31 0 0 1-.248.138m-.407.138c0-.011 0-.094.055-.166.137.1.286.11.352.11.326 0 .568-.242.568-.512a.47.47 0 0 0-.143-.342.46.46 0 0 1 .314-.138c.011 0 .028 0 .039.006-.039.01-.061.05-.061.093 0 .061.05.1.105.1.033 0 .099-.022.099-.105 0-.06-.039-.17-.176-.17a.55.55 0 0 0-.375.164.58.58 0 0 0-.37-.126c-.33 0-.573.242-.573.512 0 .155.077.287.166.364a.48.48 0 0 0-.11.292c0 .11.049.243.16.314-.216.056-.326.21-.326.348 0 .253.347.446.777.446.414 0 .777-.176.777-.452a.45.45 0 0 0-.226-.402c-.187-.094-.391-.094-.606-.094-.088 0-.237 0-.265-.005-.11-.017-.181-.122-.181-.237m.507 1.113c-.359 0-.601-.182-.601-.37 0-.16.132-.291.286-.297h.21c.303 0 .694 0 .694.298 0 .193-.248.369-.59.369M78.98 18.732l-.507.039v.11c.248 0 .276.022.276.198v1.83c0 .155-.039.155-.276.155v.11c.116-.005.303-.01.391-.01s.26.005.392.01v-.11c-.237 0-.276 0-.276-.154zM79.725 20.287c.022-.524.32-.612.44-.612.359 0 .398.474.398.612zm0 .077h.98c.078 0 .09 0 .09-.077 0-.348-.194-.69-.63-.69-.407 0-.732.364-.732.805 0 .469.369.81.771.81.43 0 .59-.39.59-.457 0-.033-.027-.044-.05-.044-.027 0-.038.022-.044.05-.12.363-.44.363-.474.363a.47.47 0 0 1-.397-.237c-.104-.165-.104-.396-.104-.523m0 0"/></g><g ns11:alignment="middle center" ns11:inkscapeversion="1.4" ns11:jacobian_sqrt=".353" ns11:pdfconverter="inkscape" ns11:preamble="/Users/laci/Library/Application Support/org.inkscape.Inkscape/config/inkscape/extensions/textext/default_packages.tex" ns11:scale="1" ns11:texconverter="pdflatex" ns11:text="$\\text{maximum curvature}$" ns11:version="1.11.0"><path d="M.276 1.147v.942c0 .154-.039.154-.276.154v.11c.127-.005.303-.01.402-.01.089 0 .27.005.392.01v-.11c-.237 0-.276 0-.276-.154v-.65c0-.364.254-.563.474-.563.226 0 .265.188.265.392v.821c0 .154-.039.154-.276.154v.11c.121-.005.303-.01.397-.01.088 0 .276.005.391.01v-.11c-.231 0-.27 0-.27-.154v-.65c0-.364.248-.563.474-.563.22 0 .26.188.26.392v.821c0 .154-.04.154-.276.154v.11c.121-.005.303-.01.397-.01.093 0 .275.005.397.01v-.11c-.182 0-.27 0-.276-.104v-.673c0-.303 0-.408-.11-.534-.05-.061-.166-.133-.37-.133a.55.55 0 0 0-.507.348C1.438.837 1.18.799 1.02.799.76.8.595.95.496 1.17v-.37L0 .838v.11c.248 0 .276.022.276.199M3.987 2.09c.017.137.11.286.276.286.077 0 .292-.05.292-.337v-.198h-.088v.198c0 .204-.089.226-.127.226-.116 0-.132-.16-.132-.176v-.7c0-.149 0-.287-.127-.419A.67.67 0 0 0 3.6.777c-.292 0-.534.166-.534.397 0 .105.071.165.165.165.1 0 .16-.071.16-.16 0-.043-.017-.16-.182-.16.1-.126.27-.165.38-.165.177 0 .375.138.375.452v.127c-.182.011-.424.022-.645.127-.264.121-.353.303-.353.457 0 .287.342.375.563.375a.49.49 0 0 0 .457-.303m-.022-.58v.353c0 .33-.254.452-.413.452-.171 0-.315-.121-.315-.298 0-.192.15-.485.728-.507M5.584 1.527c.105-.132.237-.303.326-.397a.53.53 0 0 1 .419-.182v-.11a4.943 4.943 0 0 1-.628 0v.11c.076.006.104.05.104.11 0 .055-.039.1-.055.122l-.215.275-.276-.358c-.033-.033-.033-.039-.033-.06 0-.056.055-.089.121-.089v-.11c-.088.005-.32.01-.38.01-.072 0-.237-.005-.33-.01v.11c.247 0 .247 0 .413.215l.347.452-.33.419a.55.55 0 0 1-.447.21v.11c.088-.006.198-.011.292-.011.1 0 .248.005.33.01v-.11c-.076-.01-.099-.055-.099-.11 0-.077.1-.193.315-.446l.27.352c.027.04.071.094.071.116 0 .033-.033.088-.126.088v.11c.104-.005.303-.01.38-.01.094 0 .231.005.336.01v-.11c-.187 0-.253-.005-.33-.11zM7.053.8l-.49.038v.11c.226 0 .259.022.259.193v.948c0 .154-.039.154-.276.154v.11c.11-.005.304-.01.386-.01q.189.001.37.01v-.11c-.237 0-.249-.016-.249-.154zm.012-.613A.18.18 0 0 0 6.883 0a.19.19 0 0 0-.188.187.19.19 0 0 0 .188.188c.099 0 .182-.077.182-.188M7.793 1.147v.942c0 .154-.039.154-.276.154v.11c.127-.005.304-.01.403-.01.088 0 .27.005.391.01v-.11c-.237 0-.276 0-.276-.154v-.65c0-.364.254-.563.475-.563.226 0 .264.188.264.392v.821c0 .154-.038.154-.275.154v.11c.12-.005.303-.01.396-.01.089 0 .276.005.392.01v-.11c-.232 0-.27 0-.27-.154v-.65c0-.364.248-.563.474-.563.22 0 .259.188.259.392v.821c0 .154-.039.154-.276.154v.11c.121-.005.303-.01.397-.01s.276.005.397.01v-.11c-.182 0-.27 0-.276-.104v-.673c0-.303 0-.408-.11-.534-.05-.061-.165-.133-.37-.133a.55.55 0 0 0-.506.348c-.05-.31-.31-.348-.469-.348-.259 0-.424.15-.524.37v-.37l-.496.039v.11c.248 0 .276.022.276.199M11.61 2.078v.314l.507-.038v-.11c-.242 0-.27-.023-.27-.199V.799l-.518.039v.11c.242 0 .275.022.275.199v.622c0 .31-.17.546-.43.546-.292 0-.308-.165-.308-.347V.799l-.518.039v.11c.275 0 .275.011.275.32v.529c0 .276 0 .595.535.595.198 0 .353-.099.452-.314M12.576 1.147v.942c0 .154-.039.154-.276.154v.11c.127-.005.303-.01.403-.01.088 0 .27.005.391.01v-.11c-.237 0-.276 0-.276-.154v-.65c0-.364.254-.563.474-.563.226 0 .265.188.265.392v.821c0 .154-.039.154-.276.154v.11c.122-.005.304-.01.397-.01.089 0 .276.005.392.01v-.11c-.232 0-.27 0-.27-.154v-.65c0-.364.248-.563.474-.563.22 0 .259.188.259.392v.821c0 .154-.039.154-.276.154v.11c.121-.005.303-.01.397-.01s.276.005.397.01v-.11c-.182 0-.27 0-.276-.104v-.673c0-.303 0-.408-.11-.534-.05-.061-.165-.133-.37-.133a.55.55 0 0 0-.506.348c-.05-.31-.31-.348-.469-.348-.259 0-.424.15-.524.37v-.37L12.3.838v.11c.248 0 .276.022.276.199M16.706 1.588c0-.574.287-.723.474-.723.033 0 .254.006.375.133-.144.01-.166.115-.166.16 0 .093.067.16.16.16.094 0 .166-.056.166-.166 0-.237-.27-.375-.54-.375-.442 0-.761.38-.761.816 0 .452.347.8.755.8a.584.584 0 0 0 .584-.458c0-.033-.038-.033-.05-.033-.027 0-.038.01-.043.033-.1.325-.331.37-.458.37-.187 0-.496-.15-.496-.717M19.227 2.078v.314l.507-.038v-.11c-.242 0-.27-.023-.27-.199V.799l-.518.039v.11c.243 0 .276.022.276.199v.622c0 .31-.171.546-.43.546-.292 0-.309-.165-.309-.347V.799l-.518.039v.11c.275 0 .275.011.275.32v.529c0 .276 0 .595.535.595.199 0 .353-.099.452-.314M20.397 1.185V.8l-.49.039v.11c.248 0 .275.022.275.199v.942c0 .154-.039.154-.276.154v.11c.138-.005.304-.01.403-.01.138 0 .303 0 .446.01v-.11h-.077c-.259 0-.264-.038-.264-.165v-.54c0-.347.148-.662.413-.662q.032-.002.039.006c-.011 0-.083.044-.083.138 0 .093.077.149.154.149.06 0 .15-.045.15-.155S20.975.8 20.826.8c-.26 0-.386.237-.43.386M22.645 1.185c.033-.083.093-.237.325-.237v-.11a4 4 0 0 1-.265.01c-.083 0-.242-.005-.303-.01v.11c.127 0 .165.083.165.149 0 .033-.005.05-.016.088l-.364.893-.391-.981c-.022-.044-.022-.05-.022-.06 0-.089.137-.089.204-.089v-.11c-.11.005-.304.01-.386.01-.094 0-.237-.005-.342-.01v.11c.22 0 .237.022.281.127l.507 1.251c.022.05.028.066.072.066.05 0 .06-.033.077-.066zM24.01 2.09c.017.137.111.286.276.286.078 0 .293-.05.293-.337v-.198h-.089v.198c0 .204-.088.226-.126.226-.116 0-.133-.16-.133-.176v-.7c0-.149 0-.287-.127-.419a.67.67 0 0 0-.48-.193c-.291 0-.534.166-.534.397 0 .105.072.165.166.165.099 0 .16-.071.16-.16 0-.043-.017-.16-.182-.16.099-.126.27-.165.38-.165.176 0 .375.138.375.452v.127c-.182.011-.425.022-.645.127-.265.121-.353.303-.353.457 0 .287.342.375.562.375a.49.49 0 0 0 .458-.303m-.021-.58v.353c0 .33-.254.452-.414.452-.17 0-.314-.121-.314-.298 0-.192.149-.485.728-.507M25.206.948h.507v-.11h-.507V.193h-.088c0 .287-.105.661-.452.678v.077h.297v.97c0 .43.33.474.458.474.248 0 .347-.248.347-.474V1.72h-.088v.193c0 .259-.105.391-.237.391-.237 0-.237-.32-.237-.38zM27.339 2.078v.314l.507-.038v-.11c-.242 0-.27-.023-.27-.199V.799l-.518.039v.11c.242 0 .275.022.275.199v.622c0 .31-.17.546-.43.546-.292 0-.308-.165-.308-.347V.799l-.518.039v.11c.275 0 .275.011.275.32v.529c0 .276 0 .595.535.595.198 0 .353-.099.452-.314M28.509 1.185V.8l-.49.039v.11c.247 0 .275.022.275.199v.942c0 .154-.039.154-.276.154v.11c.138-.005.303-.01.403-.01.137 0 .303 0 .446.01v-.11h-.077c-.26 0-.265-.038-.265-.165v-.54c0-.347.15-.662.414-.662q.032-.002.038.006c-.01 0-.082.044-.082.138 0 .093.077.149.154.149.06 0 .149-.045.149-.155S29.088.8 28.938.8c-.258 0-.385.237-.43.386M29.687 1.466c.022-.523.32-.612.44-.612.36 0 .398.474.398.612zm0 .077h.981c.077 0 .088 0 .088-.077 0-.347-.193-.689-.628-.689-.408 0-.733.364-.733.805 0 .469.37.81.771.81.43 0 .59-.391.59-.457 0-.033-.027-.044-.05-.044-.027 0-.038.022-.043.05-.122.363-.441.363-.474.363a.47.47 0 0 1-.397-.237c-.105-.165-.105-.397-.105-.524m0 0"/></g><path d="m40.279 7.71-8-5" style="fill:none;stroke:#000;stroke-width:.3;stroke-linejoin:bevel;stroke-dasharray:none;stroke-dashoffset:0;marker-start:url(#d)"/></svg>