<svg xmlns="http://www.w3.org/2000/svg" xmlns:ns11="http://www.iki.fi/pav/software/textext/" width="718.11" height="720.77" viewBox="0 0 190 190.704"><defs><marker id="g" markerHeight="1" markerWidth="1" orient="auto-start-reverse" preserveAspectRatio="xMidYMid" refX=".5" refY="0" style="overflow:visible" viewBox="0 0 1 1"><path d="M3-3 0 0l3 3" style="fill:none;stroke:context-stroke;stroke-width:1;stroke-linecap:butt" transform="rotate(180 .125 0)"/></marker><marker id="f" markerHeight="1" markerWidth="1" orient="auto-start-reverse" preserveAspectRatio="xMidYMid" refX=".5" refY="0" style="overflow:visible" viewBox="0 0 1 1"><path d="M3-3 0 0l3 3" style="fill:none;stroke:context-stroke;stroke-width:1;stroke-linecap:butt" transform="rotate(180 .125 0)"/></marker><marker id="c" markerHeight="1" markerWidth="1" orient="auto-start-reverse" preserveAspectRatio="xMidYMid" refX=".5" refY="0" style="overflow:visible" viewBox="0 0 1 1"><path d="M3-3 0 0l3 3" style="fill:none;stroke:context-stroke;stroke-width:1;stroke-linecap:butt" transform="rotate(180 .125 0)"/></marker><marker id="h" markerHeight="1" markerWidth="1" orient="auto-start-reverse" preserveAspectRatio="xMidYMid" refX="0" refY="0" style="overflow:visible" viewBox="0 0 1 1"><path d="M3-3 0 0l3 3" style="fill:none;stroke:context-stroke;stroke-width:1;stroke-linecap:butt" transform="rotate(180 .125 0)"/></marker><marker id="b" markerHeight="1" markerWidth="1" orient="auto-start-reverse" preserveAspectRatio="xMidYMid" refX=".5" refY="0" style="overflow:visible" viewBox="0 0 1 1"><path d="M3-3 0 0l3 3" style="fill:none;stroke:context-stroke;stroke-width:1;stroke-linecap:butt" transform="rotate(180 .125 0)"/></marker><marker id="a" markerHeight="1" markerWidth="1" orient="auto-start-reverse" preserveAspectRatio="xMidYMid" refX="0" refY="0" style="overflow:visible" viewBox="0 0 1 1"><path d="M3-3 0 0l3 3" style="fill:none;stroke:context-stroke;stroke-width:1;stroke-linecap:butt" transform="rotate(180 .125 0)"/></marker><marker id="d" markerHeight="1" markerWidth="1" orient="auto-start-reverse" preserveAspectRatio="xMidYMid" refX="0" refY="0" style="overflow:visible" viewBox="0 0 1 1"><path d="M3-3 0 0l3 3" style="fill:none;stroke:context-stroke;stroke-width:1;stroke-linecap:butt" transform="rotate(180 .125 0)"/></marker><marker id="e" markerHeight="1" markerWidth="1" orient="auto-start-reverse" preserveAspectRatio="xMidYMid" refX="0" refY="0" style="overflow:visible" viewBox="0 0 1 1"><path d="M3-3 0 0l3 3" style="fill:none;stroke:context-stroke;stroke-width:1;stroke-linecap:butt" transform="rotate(180 .125 0)"/></marker></defs><path d="M72 97c14 13 28 26 39.167 28.333 11.166 2.333 19.5-6 26.333-5.333s12.167 10.333 17.5 20" style="fill:none;stroke-width:1;stroke-dasharray:none" transform="translate(-30 -29.296)"/><ellipse cx="80.084" cy="145.704" rx=".916" ry=".865" style="fill:#000;stroke:#000;stroke-width:.271117;stroke-dasharray:none;stroke-dashoffset:0;stroke-opacity:1"/><ellipse cx="15" cy="22.569" rx=".916" ry=".865" style="fill:#000;stroke:#000;stroke-width:.271117;stroke-dasharray:none;stroke-dashoffset:0;stroke-opacity:1"/><ellipse cx="135" cy="145.569" rx=".916" ry=".865" style="fill:#000;stroke:#000;stroke-width:.271117;stroke-dasharray:none;stroke-dashoffset:0;stroke-opacity:1"/><ellipse cx="135.084" cy="160.704" rx=".916" ry=".865" style="fill:#000;stroke:#000;stroke-width:.271117;stroke-dasharray:none;stroke-dashoffset:0;stroke-opacity:1"/><ellipse cx="58.916" cy="111.704" rx=".916" ry=".865" style="fill:#000;stroke:#000;stroke-width:.271117;stroke-dasharray:none;stroke-dashoffset:0;stroke-opacity:1"/><path d="M135 145.704v15" style="fill:#000;stroke:#000;stroke-width:.499999;stroke-dasharray:none;stroke-dashoffset:0;stroke-opacity:1"/><path d="M80 105.704v80" style="fill:none;stroke:#000;stroke-width:.01"/><path d="M80 125.704v40" style="fill:#000;stroke:#000;stroke-width:.499999;stroke-dasharray:none;stroke-dashoffset:0"/><path ns11:alignment="middle center" ns11:inkscapeversion="1.4" ns11:jacobian_sqrt=".529" ns11:pdfconverter="inkscape" ns11:preamble="/Users/laci/Library/Application Support/org.inkscape.Inkscape/config/inkscape/extensions/textext/default_packages.tex" ns11:scale="1.5" ns11:texconverter="pdflatex" ns11:text="$\\theta$" ns11:version="1.11.0" d="M62.513 134.984c0-.347-.091-1.083-.629-1.083-.736 0-1.546 1.488-1.546 2.696 0 .496.149 1.083.628 1.083.745 0 1.547-1.513 1.547-2.696m-1.62.72c.09-.331.198-.753.412-1.133.141-.256.331-.554.571-.554.256 0 .29.339.29.637 0 .264-.042.529-.166 1.05zm1.057.173c-.057.24-.165.687-.372 1.067-.182.364-.38.62-.612.62-.173 0-.28-.157-.28-.645 0-.223.032-.53.165-1.042zm0 0"/><path d="M145 145.704v15" style="fill:none;stroke:#000;stroke-width:.499999;stroke-dasharray:none;marker-start:url(#a);marker-end:url(#b)"/><path d="M80 175.704h55" style="fill:none;stroke:#000;stroke-width:.499999;stroke-dasharray:none;marker-start:url(#c);marker-end:url(#b)"/><path ns11:alignment="middle center" ns11:inkscapeversion="1.4" ns11:jacobian_sqrt=".529" ns11:pdfconverter="inkscape" ns11:preamble="/Users/laci/Library/Application Support/org.inkscape.Inkscape/config/inkscape/extensions/textext/default_packages.tex" ns11:scale="1.5" ns11:texconverter="pdflatex" ns11:text="$f$" ns11:version="1.11.0" d="M107.686 169.869h.455c.108 0 .157 0 .157-.107 0-.058-.05-.058-.14-.058h-.439l.108-.604c.025-.107.1-.48.132-.546.041-.099.132-.182.248-.182.017 0 .157 0 .257.1a.295.295 0 0 0-.29.28c0 .125.1.191.199.191.14 0 .289-.124.289-.322 0-.24-.24-.364-.455-.364-.182 0-.512.099-.67.62-.033.107-.05.165-.173.827H107c-.107 0-.165 0-.165.099 0 .066.05.066.148.066h.348l-.389 2.084c-.1.512-.19.992-.463.992-.025 0-.149 0-.256-.1.248-.016.297-.206.297-.28 0-.125-.099-.19-.198-.19-.14 0-.29.123-.29.322 0 .231.232.364.447.364.29 0 .504-.315.595-.513.174-.33.29-.967.298-1.009zm0 0"/><g ns11:alignment="middle center" ns11:inkscapeversion="1.4" ns11:jacobian_sqrt=".529" ns11:pdfconverter="inkscape" ns11:preamble="/Users/laci/Library/Application Support/org.inkscape.Inkscape/config/inkscape/extensions/textext/default_packages.tex" ns11:scale="1.5" ns11:texconverter="pdflatex" ns11:text="$\\text{\\shortstack{image\\\\plane}}$" ns11:version="1.11.0"><path d="m139.774 101.389-.736.057v.166c.339 0 .388.033.388.29v1.421c0 .232-.057.232-.413.232v.165c.165-.008.455-.016.579-.016.19 0 .372.008.554.016v-.165c-.356 0-.372-.025-.372-.232zm.016-.918a.27.27 0 0 0-.273-.281.284.284 0 0 0-.28.28c0 .141.115.282.28.282a.27.27 0 0 0 .273-.281M140.883 101.91v1.413c0 .232-.058.232-.414.232v.165c.19-.008.455-.016.604-.016.132 0 .405.008.587.016v-.165c-.355 0-.413 0-.413-.232v-.975c0-.546.38-.844.71-.844.34 0 .398.281.398.587v1.232c0 .232-.058.232-.414.232v.165c.182-.008.455-.016.596-.016.132 0 .413.008.587.016v-.165c-.348 0-.406 0-.406-.232v-.975c0-.546.373-.844.712-.844.33 0 .388.281.388.587v1.232c0 .232-.058.232-.413.232v.165c.182-.008.454-.016.595-.016s.413.008.595.016v-.165c-.273 0-.405 0-.413-.157v-1.009c0-.455 0-.612-.165-.802-.075-.09-.248-.198-.554-.198a.82.82 0 0 0-.761.52c-.075-.463-.463-.52-.703-.52-.389 0-.637.223-.785.554v-.554l-.745.057v.166c.373 0 .414.033.414.297M146.45 103.323c.024.207.165.43.413.43.116 0 .438-.074.438-.504v-.298h-.132v.298c0 .306-.132.339-.19.339-.174 0-.199-.24-.199-.265v-1.05c0-.223 0-.43-.19-.628a1 1 0 0 0-.72-.29c-.437 0-.801.249-.801.596 0 .157.107.248.248.248a.23.23 0 0 0 .24-.24c0-.066-.025-.24-.273-.24.149-.19.405-.248.57-.248.265 0 .563.207.563.678v.19c-.273.017-.637.034-.968.19-.397.183-.529.455-.529.687 0 .43.513.562.843.562a.73.73 0 0 0 .687-.455m-.033-.868v.53c0 .495-.38.677-.62.677-.257 0-.472-.182-.472-.446 0-.29.223-.728 1.092-.76M148.507 102.81c-.463 0-.463-.528-.463-.644 0-.14.008-.314.083-.447a.47.47 0 0 1 .38-.206c.455 0 .455.52.455.645 0 .14 0 .314-.083.446a.47.47 0 0 1-.372.207m-.612.207c0-.016 0-.14.083-.248.207.15.43.166.53.166.487 0 .85-.364.85-.77a.7.7 0 0 0-.214-.512.68.68 0 0 1 .471-.207.14.14 0 0 1 .058.009c-.058.016-.091.074-.091.14 0 .091.074.15.157.15.05 0 .149-.034.149-.158 0-.09-.058-.256-.265-.256a.82.82 0 0 0-.562.248.87.87 0 0 0-.554-.19c-.496 0-.86.363-.86.769 0 .231.116.43.248.545a.72.72 0 0 0-.165.438c0 .166.074.364.24.472-.323.082-.488.314-.488.52 0 .381.52.67 1.166.67.62 0 1.166-.264 1.166-.678a.67.67 0 0 0-.34-.603c-.28-.14-.587-.14-.909-.14-.132 0-.356 0-.397-.009-.165-.025-.273-.182-.273-.356m.761 1.67c-.537 0-.901-.272-.901-.553 0-.24.198-.439.43-.447h.314c.455 0 1.042 0 1.042.447 0 .289-.372.554-.885.554M150.556 102.389c.033-.785.48-.918.661-.918.538 0 .596.711.596.918zm0 .116h1.472c.115 0 .132 0 .132-.116 0-.52-.29-1.033-.943-1.033-.612 0-1.1.545-1.1 1.207 0 .702.555 1.215 1.158 1.215.645 0 .885-.587.885-.686 0-.05-.041-.066-.075-.066-.04 0-.057.033-.066.074-.182.546-.661.546-.71.546-.265 0-.472-.157-.596-.356-.157-.248-.157-.595-.157-.785M140.335 108.003v-.347l-.761.058v.165c.372 0 .413.033.413.265v2.464c0 .24-.057.24-.413.24v.165c.182-.008.455-.017.587-.017.149 0 .413.009.595.017v-.165c-.347 0-.405 0-.405-.24v-.935c.025.091.248.373.645.373a1.19 1.19 0 0 0 1.174-1.2c0-.67-.504-1.19-1.1-1.19a.93.93 0 0 0-.735.347m.016 1.381v-1.174a.77.77 0 0 1 .678-.422c.389 0 .703.463.703 1.059 0 .636-.364 1.083-.752 1.083-.215 0-.414-.108-.554-.323-.075-.107-.075-.115-.075-.223M143.288 106.325l-.76.058v.165c.372 0 .413.033.413.298v2.745c0 .231-.058.231-.413.231v.166c.173-.009.454-.017.587-.017s.388.008.587.017v-.166c-.356 0-.414 0-.414-.231zM145.572 109.59c.025.208.165.43.413.43.116 0 .438-.074.438-.504v-.297h-.132v.297c0 .306-.132.34-.19.34-.174 0-.199-.24-.199-.265v-1.05c0-.223 0-.43-.19-.629a1 1 0 0 0-.72-.289c-.437 0-.801.248-.801.595 0 .157.107.248.248.248a.23.23 0 0 0 .24-.24c0-.066-.025-.24-.273-.24.149-.19.405-.247.57-.247.265 0 .563.206.563.678v.19c-.273.016-.637.033-.968.19-.397.182-.529.455-.529.686 0 .43.513.563.843.563a.73.73 0 0 0 .687-.455m-.033-.867v.529c0 .496-.38.678-.62.678-.257 0-.472-.182-.472-.447 0-.29.223-.727 1.092-.76M147.033 108.177v1.414c0 .231-.057.231-.413.231v.166c.19-.009.455-.017.604-.017.132 0 .405.008.587.017v-.166c-.356 0-.414 0-.414-.231v-.976c0-.546.38-.843.711-.843.34 0 .397.28.397.587v1.232c0 .231-.058.231-.413.231v.166c.182-.009.454-.017.595-.017.132 0 .413.008.587.017v-.166c-.273 0-.405 0-.405-.157v-1.008c0-.455 0-.612-.165-.803-.075-.09-.248-.198-.554-.198-.389 0-.637.223-.786.554v-.554l-.744.058v.165c.372 0 .413.033.413.298M149.97 108.657c.034-.786.48-.918.662-.918.538 0 .595.71.595.918zm0 .115h1.472c.116 0 .133 0 .133-.115 0-.521-.29-1.034-.943-1.034-.612 0-1.1.546-1.1 1.207 0 .703.554 1.216 1.158 1.216.645 0 .885-.587.885-.687 0-.05-.042-.066-.075-.066-.041 0-.058.033-.066.075-.182.545-.661.545-.711.545-.265 0-.471-.157-.595-.355-.157-.248-.157-.596-.157-.786m0 0"/></g><ellipse cx="80.084" cy="40.704" rx=".916" ry=".865" style="fill:#000;stroke:#000;stroke-width:.271117;stroke-dasharray:none;stroke-dashoffset:0;stroke-opacity:1"/><ellipse cx="15" cy="40.569" rx=".916" ry=".865" style="fill:#000;stroke:#000;stroke-width:.271117;stroke-dasharray:none;stroke-dashoffset:0;stroke-opacity:1"/><ellipse cx="135" cy="40.569" rx=".916" ry=".865" style="fill:#000;stroke:#000;stroke-width:.271117;stroke-dasharray:none;stroke-dashoffset:0;stroke-opacity:1"/><ellipse cx="135.084" cy="55.704" rx=".916" ry=".865" style="fill:#000;stroke:#000;stroke-width:.271117;stroke-dasharray:none;stroke-dashoffset:0;stroke-opacity:1"/><path d="M135 40.704v15" style="fill:#000;stroke:#000;stroke-width:.499999;stroke-dasharray:none;stroke-dashoffset:0;stroke-opacity:1"/><path d="M80 .704v80" style="fill:none;stroke:#000;stroke-width:.01"/><path d="M80 20.704v40" style="fill:#000;stroke:#000;stroke-width:.499999;stroke-dasharray:none;stroke-dashoffset:0"/><path d="M35 40.704c0-4.203.576-8.271 1.654-12.13" style="fill:none;stroke:#000;stroke-width:.5;stroke-dasharray:none;marker-start:url(#c);marker-end:url(#d)"/><path ns11:alignment="middle center" ns11:inkscapeversion="1.4" ns11:jacobian_sqrt=".529" ns11:pdfconverter="inkscape" ns11:preamble="/Users/laci/Library/Application Support/org.inkscape.Inkscape/config/inkscape/extensions/textext/default_packages.tex" ns11:scale="1.5" ns11:texconverter="pdflatex" ns11:text="$\\theta$" ns11:version="1.11.0" d="M32.513 32.984c0-.347-.091-1.083-.629-1.083-.736 0-1.546 1.489-1.546 2.696 0 .496.149 1.083.628 1.083.745 0 1.547-1.513 1.547-2.696m-1.62.72c.09-.331.197-.753.412-1.133.141-.256.331-.554.571-.554.256 0 .29.339.29.637 0 .264-.042.529-.166 1.05zm1.057.173c-.057.24-.165.687-.372 1.067-.182.364-.38.62-.612.62-.173 0-.28-.157-.28-.645 0-.223.032-.529.165-1.042zm0 0"/><path d="M145 40.704v15" style="fill:none;stroke:#000;stroke-width:.499999;stroke-dasharray:none;marker-start:url(#c);marker-end:url(#e)"/><path d="M80 70.704h55" style="fill:none;stroke:#000;stroke-width:.499999;stroke-dasharray:none;marker-start:url(#c);marker-end:url(#e)"/><path ns11:alignment="middle center" ns11:inkscapeversion="1.4" ns11:jacobian_sqrt=".529" ns11:pdfconverter="inkscape" ns11:preamble="/Users/laci/Library/Application Support/org.inkscape.Inkscape/config/inkscape/extensions/textext/default_packages.tex" ns11:scale="1.5" ns11:texconverter="pdflatex" ns11:text="$f$" ns11:version="1.11.0" d="M107.686 64.87h.455c.108 0 .157 0 .157-.108 0-.058-.05-.058-.14-.058h-.439l.108-.604c.025-.107.1-.48.132-.546.041-.099.132-.181.248-.181.017 0 .157 0 .256.099a.295.295 0 0 0-.289.28c0 .125.1.191.199.191.14 0 .289-.124.289-.322 0-.24-.24-.364-.455-.364-.182 0-.512.099-.67.62-.033.107-.05.165-.173.827H107c-.107 0-.165 0-.165.099 0 .066.05.066.148.066h.348l-.389 2.084c-.1.512-.19.992-.463.992-.025 0-.149 0-.256-.1.248-.016.297-.206.297-.28 0-.125-.099-.19-.198-.19-.14 0-.29.123-.29.322 0 .231.232.364.447.364.29 0 .504-.315.595-.513.174-.33.29-.967.298-1.009zm0 0"/><path d="m65 55.704 15-15" style="fill:none;stroke:#000;stroke-width:.499999;stroke-dasharray:none"/><g ns11:alignment="middle center" ns11:inkscapeversion="1.4" ns11:jacobian_sqrt=".529" ns11:pdfconverter="inkscape" ns11:preamble="/Users/laci/Library/Application Support/org.inkscape.Inkscape/config/inkscape/extensions/textext/default_packages.tex" ns11:scale="1.5" ns11:texconverter="pdflatex" ns11:text="$\\text{pinhole}$" ns11:version="1.11.0"><path d="M50.947 58.613v-.348l-.76.058v.166c.371 0 .413.033.413.264v2.464c0 .24-.058.24-.414.24v.165c.182-.008.455-.016.587-.016.15 0 .414.008.596.016v-.165c-.348 0-.406 0-.406-.24v-.934c.025.09.248.372.645.372a1.19 1.19 0 0 0 1.174-1.199c0-.67-.504-1.19-1.1-1.19a.93.93 0 0 0-.735.347m.016 1.38V58.82a.77.77 0 0 1 .678-.421c.389 0 .703.463.703 1.058 0 .637-.364 1.083-.752 1.083-.215 0-.414-.107-.554-.322-.075-.108-.075-.116-.075-.223M53.9 58.265l-.735.058v.166c.339 0 .388.033.388.29V60.2c0 .232-.057.232-.413.232v.165c.165-.008.455-.016.579-.016q.283.002.554.016v-.165c-.356 0-.372-.025-.372-.232zm.017-.917a.27.27 0 0 0-.273-.281.284.284 0 0 0-.28.28c0 .141.115.282.28.282a.27.27 0 0 0 .273-.281M55.01 58.786V60.2c0 .232-.058.232-.414.232v.165c.19-.008.455-.016.604-.016.132 0 .405.008.587.016v-.165c-.355 0-.413 0-.413-.232v-.975c0-.546.38-.844.71-.844.34 0 .398.281.398.587V60.2c0 .232-.058.232-.414.232v.165c.182-.008.455-.016.595-.016.133 0 .414.008.588.016v-.165c-.273 0-.406 0-.406-.157v-1.01c0-.454 0-.61-.165-.801-.074-.091-.248-.199-.554-.199-.389 0-.637.224-.785.554v-.554l-.745.058v.166c.373 0 .414.033.414.297M57.939 60.2c0 .232-.058.232-.414.232v.165c.19-.008.455-.016.604-.016.132 0 .405.008.587.016v-.165c-.356 0-.413 0-.413-.232v-.975c0-.546.38-.844.71-.844.34 0 .398.281.398.587V60.2c0 .232-.058.232-.414.232v.165c.182-.008.455-.016.595-.016.133 0 .414.008.587.016v-.165c-.272 0-.405 0-.405-.157v-1.01c0-.454 0-.61-.165-.801-.074-.091-.248-.199-.554-.199-.446 0-.678.315-.769.521v-1.852l-.76.058v.166c.371 0 .413.033.413.297zM62.77 59.464c0-.67-.521-1.232-1.158-1.232-.662 0-1.174.58-1.174 1.232 0 .687.545 1.191 1.166 1.191.636 0 1.165-.52 1.165-1.19m-1.158 1.059a.68.68 0 0 1-.604-.356c-.132-.231-.132-.554-.132-.744 0-.207 0-.488.124-.72a.71.71 0 0 1 .604-.355.69.69 0 0 1 .595.347c.14.224.14.53.14.728 0 .19 0 .48-.115.711a.69.69 0 0 1-.612.389M63.86 56.934l-.761.058v.166c.372 0 .413.033.413.297V60.2c0 .232-.058.232-.413.232v.165c.174-.008.455-.016.587-.016s.389.008.587.016v-.165c-.356 0-.413 0-.413-.232zM64.977 59.266c.033-.786.48-.918.661-.918.537 0 .595.711.595.918zm0 .116h1.471c.116 0 .133 0 .133-.116 0-.521-.29-1.034-.943-1.034-.612 0-1.1.546-1.1 1.208 0 .702.554 1.215 1.158 1.215.645 0 .885-.587.885-.686 0-.05-.042-.066-.075-.066-.041 0-.058.033-.066.074-.182.546-.661.546-.711.546-.265 0-.471-.157-.595-.356-.157-.248-.157-.595-.157-.785m0 0"/></g><g ns11:alignment="middle center" ns11:inkscapeversion="1.4" ns11:jacobian_sqrt=".529" ns11:pdfconverter="inkscape" ns11:preamble="/Users/laci/Library/Application Support/org.inkscape.Inkscape/config/inkscape/extensions/textext/default_packages.tex" ns11:scale="1.5" ns11:texconverter="pdflatex" ns11:text="$\\text{\\shortstack{image\\\\plane}}$" ns11:version="1.11.0"><path d="m139.592 1.199-.736.058v.165c.339 0 .389.033.389.29v1.422c0 .231-.058.231-.414.231v.166c.165-.009.455-.017.579-.017q.283.002.554.017v-.166c-.356 0-.372-.025-.372-.231zm.016-.918a.27.27 0 0 0-.273-.281.284.284 0 0 0-.28.281c0 .14.115.281.28.281a.27.27 0 0 0 .273-.28M140.701 1.72v1.414c0 .231-.058.231-.413.231v.166c.19-.009.454-.017.603-.017.132 0 .405.008.587.017v-.166c-.355 0-.413 0-.413-.231v-.976c0-.546.38-.843.71-.843.34 0 .398.28.398.587v1.232c0 .231-.058.231-.414.231v.166c.182-.009.455-.017.596-.017.132 0 .413.008.587.017v-.166c-.348 0-.405 0-.405-.231v-.976c0-.546.372-.843.71-.843.331 0 .39.28.39.587v1.232c0 .231-.059.231-.414.231v.166c.182-.009.455-.017.595-.017s.414.008.595.017v-.166c-.272 0-.405 0-.413-.157V2.2c0-.454 0-.611-.165-.802-.075-.09-.248-.198-.554-.198a.82.82 0 0 0-.761.52c-.074-.462-.463-.52-.703-.52-.388 0-.636.223-.785.554v-.554l-.744.058v.165c.372 0 .413.033.413.298M146.268 3.134c.024.206.165.43.413.43.116 0 .438-.075.438-.505v-.297h-.132v.297c0 .306-.132.34-.19.34-.174 0-.199-.24-.199-.265v-1.05c0-.224 0-.43-.19-.629a1 1 0 0 0-.72-.29c-.437 0-.801.249-.801.596 0 .157.107.248.248.248a.23.23 0 0 0 .24-.24c0-.066-.025-.24-.273-.24.149-.19.405-.247.57-.247.265 0 .563.206.563.678v.19c-.273.016-.637.033-.968.19-.397.182-.529.455-.529.686 0 .43.513.562.843.562a.73.73 0 0 0 .687-.454m-.033-.869v.53c0 .496-.38.678-.62.678-.257 0-.472-.182-.472-.447 0-.29.223-.727 1.092-.76M148.325 2.621c-.463 0-.463-.53-.463-.645 0-.14.008-.314.083-.446a.47.47 0 0 1 .38-.207c.455 0 .455.52.455.645 0 .14 0 .314-.083.446a.47.47 0 0 1-.372.207m-.612.207c0-.017 0-.14.083-.248.207.149.43.165.53.165.487 0 .85-.364.85-.769a.7.7 0 0 0-.214-.513.68.68 0 0 1 .471-.206.14.14 0 0 1 .058.008c-.058.017-.09.074-.09.14 0 .092.074.15.156.15.05 0 .149-.034.149-.158 0-.09-.058-.256-.265-.256a.82.82 0 0 0-.562.248.87.87 0 0 0-.554-.19c-.496 0-.86.364-.86.769 0 .231.116.43.248.546a.72.72 0 0 0-.165.438c0 .165.074.364.24.471-.323.083-.488.314-.488.52 0 .381.52.67 1.166.67.62 0 1.166-.264 1.166-.677a.67.67 0 0 0-.34-.604c-.28-.14-.586-.14-.909-.14-.132 0-.355 0-.397-.009-.165-.025-.273-.182-.273-.355m.761 1.67c-.537 0-.901-.273-.901-.554 0-.24.198-.438.43-.447h.314c.455 0 1.042 0 1.042.447 0 .29-.372.554-.885.554M150.374 2.2c.033-.786.48-.918.661-.918.538 0 .596.71.596.917zm0 .115h1.472c.115 0 .132 0 .132-.116 0-.52-.29-1.033-.943-1.033-.611 0-1.1.546-1.1 1.207 0 .703.555 1.215 1.158 1.215.645 0 .885-.587.885-.686 0-.05-.041-.066-.074-.066-.042 0-.058.033-.067.074-.181.546-.661.546-.71.546-.265 0-.472-.157-.596-.355-.157-.248-.157-.596-.157-.786M140.153 7.814v-.348l-.76.058v.166c.371 0 .413.033.413.264v2.464c0 .24-.058.24-.414.24v.165c.182-.008.455-.016.587-.016.149 0 .414.008.595.016v-.165c-.347 0-.405 0-.405-.24v-.934c.025.09.248.372.645.372a1.19 1.19 0 0 0 1.174-1.199c0-.67-.504-1.19-1.1-1.19a.93.93 0 0 0-.735.347m.016 1.38V8.02a.77.77 0 0 1 .678-.421c.389 0 .703.463.703 1.058 0 .637-.364 1.083-.752 1.083-.215 0-.414-.107-.554-.322-.075-.108-.075-.116-.075-.224M143.107 6.135l-.761.058v.165c.372 0 .413.033.413.298v2.745c0 .232-.058.232-.413.232v.165c.173-.008.455-.017.587-.017s.388.009.587.017v-.165c-.356 0-.413 0-.413-.232zM145.39 9.401c.025.207.165.43.413.43.116 0 .438-.074.438-.504v-.298h-.132v.298c0 .306-.132.339-.19.339-.174 0-.198-.24-.198-.265v-1.05c0-.223 0-.43-.19-.628a1 1 0 0 0-.72-.29c-.438 0-.802.248-.802.596 0 .157.107.248.248.248a.23.23 0 0 0 .24-.24c0-.066-.025-.24-.273-.24.149-.19.405-.248.57-.248.265 0 .563.207.563.678v.19c-.273.017-.637.033-.968.19-.397.182-.529.455-.529.687 0 .43.513.562.844.562a.73.73 0 0 0 .686-.455m-.033-.868v.53c0 .495-.38.677-.62.677-.257 0-.472-.182-.472-.446 0-.29.224-.728 1.092-.761M146.851 7.987v1.414c0 .232-.057.232-.413.232v.165c.19-.008.455-.017.604-.017.132 0 .405.009.587.017v-.165c-.356 0-.414 0-.414-.232v-.976c0-.545.38-.843.711-.843.34 0 .397.281.397.587v1.232c0 .232-.058.232-.413.232v.165c.182-.008.455-.017.595-.017.132 0 .414.009.587.017v-.165c-.273 0-.405 0-.405-.157v-1.01c0-.454 0-.611-.165-.801-.075-.091-.248-.199-.554-.199-.389 0-.637.224-.786.554v-.554l-.744.058v.166c.372 0 .413.033.413.297M149.789 8.467c.033-.786.48-.918.661-.918.538 0 .595.711.595.918zm0 .116h1.471c.116 0 .133 0 .133-.116 0-.521-.29-1.034-.943-1.034-.612 0-1.1.546-1.1 1.207 0 .703.554 1.216 1.158 1.216.645 0 .885-.587.885-.686 0-.05-.042-.067-.075-.067-.041 0-.058.034-.066.075-.182.546-.661.546-.71.546-.265 0-.472-.158-.596-.356-.157-.248-.157-.595-.157-.785m0 0"/></g><path d="m80 145.704 55 15" style="fill:none;stroke:#000;stroke-width:.499999;stroke-dasharray:none"/><ellipse cx="80" cy="145.704" rx="7" ry="20" style="fill:#000;fill-opacity:.340426;stroke:#000;stroke-width:.499999;stroke-dasharray:none"/><path d="M80 100.704v90M135 100.704v90" style="fill:none;stroke:#000;stroke-width:.499999;stroke-dasharray:1.5,1.5;stroke-dashoffset:0"/><path d="M80 185.704c-22.091 0-40-17.909-40-40s17.909-40 40-40" style="fill:none;stroke:#000;stroke-width:.499999;stroke-dasharray:none;marker-start:url(#f);marker-end:url(#g)"/><path d="m80 145.704-21.105-33.986" style="fill:none;stroke:#000;stroke-width:.499999;stroke-dasharray:none;stroke-dashoffset:0"/><path d="M55 145.704c0-8.966 4.72-16.829 11.81-21.241" style="fill:none;fill-opacity:.340426;stroke:#000;stroke-width:.5;stroke-linecap:square;stroke-linejoin:bevel;stroke-dasharray:none;marker-start:url(#c);marker-end:url(#h);paint-order:stroke fill markers"/><path d="m15 22.569 120 33.135" style="fill:none;stroke:#000;stroke-width:.499999;stroke-linejoin:bevel"/><g ns11:alignment="middle center" ns11:inkscapeversion="1.4" ns11:jacobian_sqrt=".529" ns11:pdfconverter="inkscape" ns11:preamble="/Users/laci/Library/Application Support/org.inkscape.Inkscape/config/inkscape/extensions/textext/default_packages.tex" ns11:scale="1.5" ns11:texconverter="pdflatex" ns11:text="$\\text{\\shortstack{fisheye\\\\lens}}$" ns11:version="1.11.0"><path d="M88.5 123.537c.24 0 .274.067.274.282v1.43c0 .231-.058.231-.406.231v.166c.174-.008.447-.017.58-.017s.396.009.586.017v-.166c-.355 0-.413 0-.413-.231v-1.943l-.662.05-.09.008c-.017.008-.025.008-.1.008h-.62v-.595c0-.521.455-.736.777-.736.157 0 .348.058.455.173-.215.017-.248.158-.248.249 0 .173.14.24.24.24.124 0 .24-.083.24-.24 0-.315-.29-.538-.678-.538-.488 0-1.117.273-1.117.843v.604h-.421v.165h.421v1.712c0 .231-.057.231-.413.231v.166c.174-.008.455-.017.587-.017s.389.009.587.017v-.166c-.355 0-.413 0-.413-.231v-1.712zM90.785 124.62c.116.025.545.108.545.488 0 .265-.181.48-.595.48-.446 0-.637-.298-.736-.752-.016-.067-.016-.083-.074-.083-.066 0-.066.033-.066.124v.703c0 .09 0 .124.058.124.024 0 .033-.009.132-.108.008-.008.008-.016.107-.116a.8.8 0 0 0 .58.224c.603 0 .85-.356.85-.736a.66.66 0 0 0-.222-.496c-.174-.174-.38-.215-.604-.257-.298-.057-.645-.124-.645-.43 0-.19.132-.405.587-.405.579 0 .612.48.62.637 0 .05.05.05.058.05.074 0 .074-.025.074-.124v-.538c0-.083 0-.124-.057-.124-.025 0-.042 0-.108.066-.016.017-.066.066-.09.083-.2-.149-.414-.149-.497-.149-.645 0-.843.356-.843.653 0 .182.082.331.223.447.174.132.322.165.703.24M92.343 125.249c0 .231-.058.231-.413.231v.166c.19-.008.454-.017.603-.017.132 0 .405.009.587.017v-.166c-.355 0-.413 0-.413-.231v-.976c0-.545.38-.843.71-.843.34 0 .398.281.398.587v1.232c0 .231-.058.231-.414.231v.166c.182-.008.455-.017.596-.017.132 0 .413.009.587.017v-.166c-.273 0-.405 0-.405-.157v-1.008c0-.455 0-.612-.166-.802-.074-.091-.248-.199-.554-.199-.446 0-.678.314-.769.521v-1.852l-.76.058v.165c.372 0 .413.033.413.298zM95.28 124.315c.034-.786.48-.918.662-.918.538 0 .595.71.595.918zm0 .115h1.472c.116 0 .133 0 .133-.115 0-.521-.29-1.034-.943-1.034-.612 0-1.1.546-1.1 1.207 0 .703.554 1.216 1.158 1.216.645 0 .885-.587.885-.687 0-.05-.042-.066-.075-.066-.041 0-.058.033-.066.075-.182.545-.661.545-.71.545-.265 0-.472-.157-.596-.355-.157-.248-.157-.595-.157-.786M99.227 123.876c.133-.339.405-.339.488-.339v-.165a6 6 0 0 1-.397.017c-.09 0-.339-.009-.454-.017v.165c.165 0 .248.091.248.224 0 .058-.009.066-.033.132l-.538 1.29-.579-1.414c-.024-.058-.033-.075-.033-.1 0-.132.19-.132.298-.132v-.165c-.14.008-.488.017-.579.017-.14 0-.355-.009-.513-.017v.165c.257 0 .356 0 .43.182l.794 1.927a4 4 0 0 0-.132.314c-.116.29-.265.653-.604.653-.024 0-.149 0-.248-.099.166-.017.207-.132.207-.223 0-.133-.1-.215-.223-.215-.108 0-.224.066-.224.223 0 .24.224.43.488.43.331 0 .546-.306.67-.604zM100.258 124.315c.033-.786.48-.918.661-.918.538 0 .596.71.596.918zm0 .115h1.472c.116 0 .132 0 .132-.115 0-.521-.29-1.034-.943-1.034-.611 0-1.1.546-1.1 1.207 0 .703.555 1.216 1.158 1.216.645 0 .885-.587.885-.687 0-.05-.041-.066-.074-.066-.042 0-.058.033-.066.075-.182.545-.662.545-.712.545-.264 0-.47-.157-.595-.355-.157-.248-.157-.595-.157-.786M90.913 128.251l-.761.058v.165c.372 0 .413.033.413.298v2.745c0 .231-.058.231-.413.231v.166c.174-.008.455-.017.587-.017s.389.009.587.017v-.166c-.356 0-.413 0-.413-.231zM92.03 130.583c.033-.786.48-.918.661-.918.538 0 .596.71.596.918zm0 .115h1.472c.116 0 .132 0 .132-.115 0-.521-.29-1.034-.943-1.034-.611 0-1.1.546-1.1 1.207 0 .703.555 1.216 1.158 1.216.645 0 .885-.587.885-.687 0-.05-.041-.066-.074-.066-.042 0-.058.033-.067.075-.181.545-.661.545-.71.545-.265 0-.472-.157-.596-.355-.157-.248-.157-.595-.157-.786M94.364 130.103v1.414c0 .231-.058.231-.413.231v.166c.19-.008.455-.017.604-.017.132 0 .405.009.587.017v-.166c-.356 0-.414 0-.414-.231v-.976c0-.545.38-.843.711-.843.34 0 .397.281.397.587v1.232c0 .231-.058.231-.413.231v.166c.182-.008.454-.017.595-.017.132 0 .413.009.587.017v-.166c-.273 0-.405 0-.405-.157v-1.008c0-.455 0-.612-.165-.802-.075-.091-.248-.199-.554-.199-.389 0-.637.223-.786.554v-.554l-.744.058v.165c.372 0 .413.033.413.298M97.814 130.889c.116.024.546.107.546.487 0 .265-.182.48-.595.48-.447 0-.637-.298-.736-.753-.017-.066-.017-.082-.075-.082-.066 0-.066.033-.066.124v.703c0 .09 0 .124.058.124.025 0 .033-.009.132-.108.009-.008.009-.016.108-.116a.8.8 0 0 0 .579.224c.603 0 .851-.356.851-.736a.66.66 0 0 0-.223-.496c-.174-.174-.38-.215-.604-.257-.297-.057-.645-.124-.645-.43 0-.19.133-.405.588-.405.578 0 .611.48.62.637 0 .05.05.05.058.05.074 0 .074-.025.074-.124v-.538c0-.083 0-.124-.058-.124-.025 0-.041 0-.107.066-.017.017-.067.066-.091.083-.199-.149-.414-.149-.496-.149-.645 0-.844.356-.844.653 0 .182.083.331.223.447.174.132.323.165.703.24m0 0"/></g><path d="M15 22.704v18" style="fill:none;stroke:#000;stroke-width:.499999;stroke-linejoin:bevel;stroke-dasharray:none"/><path d="M80 .704v80M135 .704v80M0 40.704h190M0 145.704h190" style="fill:none;stroke:#000;stroke-width:.5;stroke-linejoin:bevel;stroke-dasharray:1.5,1.5;stroke-dashoffset:0"/><g ns11:alignment="middle center" ns11:inkscapeversion="1.4" ns11:jacobian_sqrt=".529" ns11:pdfconverter="inkscape" ns11:preamble="/Users/laci/Library/Application Support/org.inkscape.Inkscape/config/inkscape/extensions/textext/default_packages.tex" ns11:scale="1.5" ns11:texconverter="pdflatex" ns11:text="$\\text{optical axis}$" ns11:version="1.11.0"><path d="M165.565 36.406c0-.67-.521-1.231-1.158-1.231-.661 0-1.174.578-1.174 1.231 0 .687.546 1.191 1.166 1.191.637 0 1.166-.52 1.166-1.19m-1.158 1.059a.68.68 0 0 1-.603-.356c-.133-.231-.133-.554-.133-.744 0-.207 0-.488.124-.72a.71.71 0 0 1 .604-.355.69.69 0 0 1 .595.348c.14.223.14.529.14.727 0 .19 0 .48-.115.711a.69.69 0 0 1-.612.389M166.63 35.555v-.347l-.761.057v.166c.372 0 .413.033.413.264v2.464c0 .24-.057.24-.413.24v.166c.182-.009.455-.017.587-.017.149 0 .413.008.595.017v-.166c-.347 0-.405 0-.405-.24v-.934c.025.091.248.372.645.372a1.19 1.19 0 0 0 1.174-1.199c0-.67-.504-1.19-1.1-1.19a.93.93 0 0 0-.735.347m.016 1.38v-1.173a.77.77 0 0 1 .678-.422c.389 0 .703.463.703 1.058 0 .637-.364 1.083-.752 1.083-.215 0-.414-.107-.554-.322-.075-.108-.075-.116-.075-.223M169.56 35.43h.76v-.165h-.76v-.967h-.133c0 .43-.157.992-.678 1.017v.116h.446v1.455c0 .645.496.711.687.711.372 0 .52-.372.52-.71v-.299h-.132v.29c0 .388-.157.587-.355.587-.356 0-.356-.48-.356-.57zM171.634 35.208l-.736.057v.166c.34 0 .389.033.389.29v1.421c0 .232-.058.232-.414.232v.165c.166-.008.455-.016.58-.016.19 0 .371.008.553.016v-.165c-.355 0-.372-.025-.372-.232zm.017-.918a.27.27 0 0 0-.273-.281.284.284 0 0 0-.281.28c0 .141.115.282.28.282a.27.27 0 0 0 .274-.281M172.785 36.39c0-.86.43-1.083.71-1.083.05 0 .38.008.563.198-.215.017-.248.174-.248.24 0 .14.099.24.24.24s.248-.083.248-.248c0-.356-.406-.562-.81-.562-.662 0-1.142.57-1.142 1.223 0 .678.521 1.2 1.133 1.2a.88.88 0 0 0 .876-.687c0-.05-.057-.05-.074-.05-.041 0-.058.017-.066.05-.149.488-.496.554-.686.554-.281 0-.744-.223-.744-1.075M176.26 37.142c.025.207.165.43.413.43.116 0 .439-.074.439-.504v-.298h-.133v.298c0 .306-.132.339-.19.339-.174 0-.198-.24-.198-.265v-1.05c0-.223 0-.43-.19-.628a1 1 0 0 0-.72-.29c-.438 0-.802.249-.802.596 0 .157.108.248.248.248a.23.23 0 0 0 .24-.24c0-.066-.025-.24-.273-.24.149-.19.405-.248.57-.248.265 0 .563.207.563.678v.19c-.273.017-.637.034-.968.19-.396.183-.529.455-.529.687 0 .43.513.562.844.562a.73.73 0 0 0 .686-.455m-.033-.868v.53c0 .495-.38.677-.62.677-.257 0-.472-.182-.472-.446 0-.29.224-.728 1.092-.76M178.077 33.876l-.76.058v.166c.372 0 .413.033.413.297v2.745c0 .232-.058.232-.414.232v.165c.174-.008.455-.016.587-.016.133 0 .39.008.588.016v-.165c-.356 0-.414 0-.414-.232zM182.116 37.142c.024.207.165.43.413.43.116 0 .438-.074.438-.504v-.298h-.132v.298c0 .306-.132.339-.19.339-.174 0-.199-.24-.199-.265v-1.05c0-.223 0-.43-.19-.628a1 1 0 0 0-.72-.29c-.437 0-.801.249-.801.596 0 .157.107.248.248.248a.23.23 0 0 0 .24-.24c0-.066-.025-.24-.273-.24.149-.19.405-.248.57-.248.265 0 .563.207.563.678v.19c-.273.017-.637.034-.968.19-.397.183-.529.455-.529.687 0 .43.513.562.843.562a.73.73 0 0 0 .687-.455m-.033-.868v.53c0 .495-.38.677-.62.677-.257 0-.472-.182-.472-.446 0-.29.223-.728 1.092-.76M184.512 36.299c.157-.198.356-.455.488-.595a.8.8 0 0 1 .628-.273v-.166a8 8 0 0 1-.438.017c-.157 0-.438-.008-.504-.017v.166c.116.008.157.074.157.165 0 .083-.058.149-.083.182l-.322.414-.414-.538c-.05-.05-.05-.058-.05-.09 0-.084.083-.133.183-.133v-.166c-.133.009-.48.017-.57.017-.108 0-.356-.008-.497-.017v.166c.372 0 .372 0 .62.322l.521.678-.496.629a.83.83 0 0 1-.67.314v.165c.133-.008.298-.016.438-.016.15 0 .373.008.497.016v-.165c-.116-.017-.15-.083-.15-.165 0-.116.15-.29.472-.67l.405.529c.041.058.108.14.108.174 0 .05-.05.132-.19.132v.165c.157-.008.454-.016.57-.016.14 0 .347.008.504.016v-.165c-.28 0-.38-.008-.496-.165zM186.716 35.208l-.736.057v.166c.339 0 .388.033.388.29v1.421c0 .232-.057.232-.413.232v.165c.165-.008.455-.016.579-.016.19 0 .372.008.554.016v-.165c-.356 0-.372-.025-.372-.232zm.016-.918a.27.27 0 0 0-.273-.281.284.284 0 0 0-.28.28c0 .141.115.282.28.282a.27.27 0 0 0 .273-.281M188.346 36.514c.116.025.546.107.546.488 0 .264-.182.48-.596.48-.446 0-.636-.298-.736-.753-.016-.066-.016-.083-.074-.083-.066 0-.066.033-.066.124v.703c0 .091 0 .124.058.124.025 0 .033-.008.132-.107.008-.009.008-.017.107-.116a.8.8 0 0 0 .58.223c.603 0 .85-.355.85-.736a.66.66 0 0 0-.222-.496c-.174-.173-.38-.215-.604-.256-.298-.058-.645-.124-.645-.43 0-.19.132-.405.587-.405.579 0 .612.48.62.636 0 .05.05.05.058.05.075 0 .075-.025.075-.124v-.537c0-.083 0-.124-.058-.124-.025 0-.042 0-.108.066-.016.016-.066.066-.09.082-.2-.148-.414-.148-.497-.148-.645 0-.843.355-.843.653 0 .182.083.33.223.446.174.132.323.166.703.24m0 0"/></g><g ns11:alignment="middle center" ns11:inkscapeversion="1.4" ns11:jacobian_sqrt=".529" ns11:pdfconverter="inkscape" ns11:preamble="/Users/laci/Library/Application Support/org.inkscape.Inkscape/config/inkscape/extensions/textext/default_packages.tex" ns11:scale="1.5" ns11:texconverter="pdflatex" ns11:text="$\\text{optical axis}$" ns11:version="1.11.0"><path d="M165.565 141.407c0-.67-.521-1.232-1.158-1.232-.661 0-1.174.578-1.174 1.232 0 .686.546 1.19 1.166 1.19.637 0 1.166-.52 1.166-1.19m-1.158 1.058a.68.68 0 0 1-.603-.356c-.133-.231-.133-.554-.133-.744 0-.207 0-.488.124-.72a.71.71 0 0 1 .604-.355.69.69 0 0 1 .595.348c.14.223.14.529.14.727 0 .19 0 .48-.115.711a.69.69 0 0 1-.612.389M166.63 140.555v-.347l-.761.057v.166c.372 0 .413.033.413.264v2.464c0 .24-.057.24-.413.24v.166c.182-.009.455-.017.587-.017.149 0 .413.008.595.017v-.166c-.347 0-.405 0-.405-.24v-.934c.025.091.248.372.645.372a1.19 1.19 0 0 0 1.174-1.199c0-.67-.504-1.19-1.1-1.19a.93.93 0 0 0-.735.347m.016 1.38v-1.173a.77.77 0 0 1 .678-.422c.389 0 .703.463.703 1.058 0 .637-.364 1.083-.752 1.083-.215 0-.414-.107-.554-.322-.075-.108-.075-.116-.075-.223M169.56 140.43h.76v-.165h-.76v-.967h-.133c0 .43-.157.992-.678 1.017v.116h.446v1.455c0 .645.496.711.687.711.372 0 .52-.372.52-.71v-.299h-.132v.29c0 .388-.157.587-.355.587-.356 0-.356-.48-.356-.57zM171.634 140.208l-.736.057v.166c.34 0 .389.033.389.29v1.421c0 .232-.058.232-.414.232v.165c.166-.008.455-.016.58-.016.19 0 .371.008.553.016v-.165c-.355 0-.372-.025-.372-.232zm.017-.918a.27.27 0 0 0-.273-.281.284.284 0 0 0-.281.28c0 .141.115.282.28.282a.27.27 0 0 0 .274-.281M172.785 141.39c0-.86.43-1.083.71-1.083.05 0 .38.008.563.198-.215.017-.248.174-.248.24 0 .14.099.24.24.24s.248-.083.248-.248c0-.356-.406-.562-.81-.562-.662 0-1.142.57-1.142 1.223 0 .678.521 1.2 1.133 1.2a.88.88 0 0 0 .876-.687c0-.05-.057-.05-.074-.05-.041 0-.058.017-.066.05-.149.488-.496.554-.686.554-.281 0-.744-.223-.744-1.075M176.26 142.142c.025.207.165.43.413.43.116 0 .439-.074.439-.504v-.298h-.133v.298c0 .306-.132.339-.19.339-.174 0-.198-.24-.198-.265v-1.05c0-.223 0-.43-.19-.628a1 1 0 0 0-.72-.29c-.438 0-.802.249-.802.596 0 .157.108.248.248.248a.23.23 0 0 0 .24-.24c0-.066-.025-.24-.273-.24.149-.19.405-.248.57-.248.265 0 .563.207.563.678v.19c-.273.017-.637.034-.968.19-.396.183-.529.455-.529.687 0 .43.513.562.844.562a.73.73 0 0 0 .686-.455m-.033-.868v.53c0 .495-.38.677-.62.677-.257 0-.472-.182-.472-.446 0-.29.224-.728 1.092-.76M178.077 138.876l-.76.058v.166c.372 0 .413.033.413.297v2.745c0 .232-.058.232-.414.232v.165c.174-.008.455-.016.587-.016.133 0 .39.008.588.016v-.165c-.356 0-.414 0-.414-.232zM182.116 142.142c.024.207.165.43.413.43.116 0 .438-.074.438-.504v-.298h-.132v.298c0 .306-.132.339-.19.339-.174 0-.199-.24-.199-.265v-1.05c0-.223 0-.43-.19-.628a1 1 0 0 0-.72-.29c-.437 0-.801.249-.801.596 0 .157.107.248.248.248a.23.23 0 0 0 .24-.24c0-.066-.025-.24-.273-.24.149-.19.405-.248.57-.248.265 0 .563.207.563.678v.19c-.273.017-.637.034-.968.19-.397.183-.529.455-.529.687 0 .43.513.562.843.562a.73.73 0 0 0 .687-.455m-.033-.868v.53c0 .495-.38.677-.62.677-.257 0-.472-.182-.472-.446 0-.29.223-.728 1.092-.76M184.512 141.299c.157-.198.356-.455.488-.595a.8.8 0 0 1 .628-.273v-.166a8 8 0 0 1-.438.017c-.157 0-.438-.008-.504-.017v.166c.116.008.157.074.157.165 0 .083-.058.149-.083.182l-.322.414-.414-.538c-.05-.05-.05-.058-.05-.09 0-.084.083-.133.183-.133v-.166c-.133.009-.48.017-.57.017-.108 0-.356-.008-.497-.017v.166c.372 0 .372 0 .62.322l.521.678-.496.629a.83.83 0 0 1-.67.314v.165c.133-.008.298-.016.438-.016.15 0 .373.008.497.016v-.165c-.116-.017-.15-.083-.15-.165 0-.116.15-.29.472-.67l.405.529c.041.058.108.14.108.174 0 .05-.05.132-.19.132v.165c.157-.008.454-.016.57-.016.14 0 .347.008.504.016v-.165c-.28 0-.38-.008-.496-.165zM186.716 140.208l-.736.057v.166c.339 0 .388.033.388.29v1.421c0 .232-.057.232-.413.232v.165c.165-.008.455-.016.579-.016.19 0 .372.008.554.016v-.165c-.356 0-.372-.025-.372-.232zm.016-.918a.27.27 0 0 0-.273-.281.284.284 0 0 0-.28.28c0 .141.115.282.28.282a.27.27 0 0 0 .273-.281M188.346 141.514c.116.025.546.107.546.488 0 .264-.182.48-.596.48-.446 0-.636-.298-.736-.753-.016-.066-.016-.083-.074-.083-.066 0-.066.033-.066.124v.703c0 .091 0 .124.058.124.025 0 .033-.008.132-.107.008-.009.008-.017.107-.116a.8.8 0 0 0 .58.223c.603 0 .85-.355.85-.736a.66.66 0 0 0-.222-.496c-.174-.173-.38-.215-.604-.256-.298-.058-.645-.124-.645-.43 0-.19.132-.405.587-.405.579 0 .612.48.62.636 0 .05.05.05.058.05.075 0 .075-.025.075-.124v-.537c0-.083 0-.124-.058-.124-.025 0-.042 0-.108.066-.016.016-.066.066-.09.082-.2-.148-.414-.148-.497-.148-.645 0-.843.355-.843.653 0 .182.083.33.223.446.174.133.323.166.703.24m0 0"/></g><path ns11:alignment="middle center" ns11:inkscapeversion="1.4" ns11:jacobian_sqrt=".529" ns11:pdfconverter="inkscape" ns11:preamble="/Users/laci/Library/Application Support/org.inkscape.Inkscape/config/inkscape/extensions/textext/default_packages.tex" ns11:scale="1.5" ns11:texconverter="pdflatex" ns11:text="$C$" ns11:version="1.11.0" d="M85.508 35.026c0-.017-.008-.058-.057-.058-.017 0-.025.008-.083.066l-.364.405c-.05-.074-.29-.471-.876-.471-1.183 0-2.365 1.166-2.365 2.39 0 .868.62 1.446 1.43 1.446.455 0 .86-.206 1.141-.454.488-.43.58-.91.58-.927 0-.057-.059-.057-.067-.057-.033 0-.058.016-.066.057-.05.15-.174.53-.538.836-.363.289-.694.38-.967.38-.471 0-1.034-.273-1.034-1.091 0-.306.108-1.158.637-1.778.323-.372.819-.637 1.29-.637.537 0 .852.405.852 1.017 0 .215-.017.215-.017.273 0 .05.058.05.074.05.067 0 .067-.009.1-.108zM85.26 139.828c0-.017-.008-.058-.058-.058-.017 0-.025.008-.083.066l-.363.405c-.05-.074-.29-.471-.877-.471-1.182 0-2.365 1.166-2.365 2.39 0 .868.62 1.446 1.43 1.446.456 0 .86-.206 1.142-.454.488-.43.579-.91.579-.926 0-.058-.058-.058-.067-.058-.033 0-.057.016-.066.058-.05.148-.173.529-.537.835-.364.289-.695.38-.968.38-.47 0-1.033-.273-1.033-1.091 0-.306.107-1.158.637-1.778.322-.372.818-.637 1.29-.637.537 0 .851.405.851 1.017 0 .215-.016.215-.016.273 0 .05.057.05.074.05.066 0 .066-.009.1-.108zm0 0"/><g ns11:alignment="middle center" ns11:inkscapeversion="1.4" ns11:jacobian_sqrt=".529" ns11:pdfconverter="inkscape" ns11:preamble="/Users/laci/Library/Application Support/org.inkscape.Inkscape/config/inkscape/extensions/textext/default_packages.tex" ns11:scale="1.5" ns11:texconverter="pdflatex" ns11:text="$\\mathbf{p_W}$" ns11:version="1.11.0"><path d="M8.11 17.406c0-.099.008-.107.083-.181a.87.87 0 0 1 .603-.248c.348 0 .645.322.645.992 0 .744-.372 1.017-.71 1.017-.075 0-.323 0-.563-.29-.058-.066-.058-.074-.058-.173Zm0 1.53c.232.182.463.24.678.24.794 0 1.331-.48 1.331-1.207 0-.703-.48-1.2-1.24-1.2-.397 0-.678.166-.794.257v-.256l-.934.041v.248c.323 0 .364 0 .364.199v2.662H7.15v.248c.14-.008.463-.016.661-.016.207 0 .521.008.662.016v-.248H8.11ZM14.728 17.676c.025-.066.074-.066.264-.066h.083v-.207q-.209.015-.405.017c-.124 0-.53-.017-.546-.017v.207h.066c.025 0 .298 0 .298.033a.1.1 0 0 1-.017.041l-.67 1.638-.71-1.712h.339v-.207c-.199.017-.472.017-.67.017-.149 0-.53-.017-.562-.017v.207h.314l.124.281-.595 1.43-.703-1.711h.339v-.207c-.058 0-.546.017-.67.017-.14 0-.53-.017-.562-.017v.207h.322l.935 2.257c.033.091.05.108.181.108.108 0 .141 0 .182-.108l.695-1.67.686 1.67c.05.108.1.108.19.108.124 0 .14-.017.182-.108Zm0 0"/></g><g ns11:alignment="middle center" ns11:inkscapeversion="1.4" ns11:jacobian_sqrt=".529" ns11:pdfconverter="inkscape" ns11:preamble="/Users/laci/Library/Application Support/org.inkscape.Inkscape/config/inkscape/extensions/textext/default_packages.tex" ns11:scale="1.5" ns11:texconverter="pdflatex" ns11:text="$\\mathbf{p_W}$" ns11:version="1.11.0"><path d="M51.577 106.144c0-.099.008-.107.082-.182a.87.87 0 0 1 .604-.248c.347 0 .645.323.645.992 0 .745-.372 1.017-.711 1.017-.075 0-.323 0-.562-.289-.058-.066-.058-.074-.058-.174Zm0 1.53c.231.182.463.24.678.24.793 0 1.33-.48 1.33-1.208 0-.702-.479-1.198-1.24-1.198-.396 0-.677.165-.793.256v-.256l-.934.04v.249c.322 0 .363 0 .363.198v2.663h-.363v.248c.14-.008.463-.017.661-.017.207 0 .52.009.661.017v-.248h-.363ZM58.194 106.414c.025-.066.075-.066.265-.066h.082v-.207c-.14.008-.272.017-.405.017-.124 0-.529-.017-.545-.017v.207h.066c.025 0 .297 0 .297.033a.1.1 0 0 1-.016.041l-.67 1.637-.71-1.711h.338v-.207c-.198.017-.471.017-.67.017-.148 0-.529-.017-.562-.017v.207h.314l.124.28-.595 1.431-.703-1.711h.34v-.207c-.059 0-.546.017-.67.017-.141 0-.53-.017-.563-.017v.207h.323l.934 2.257c.033.09.05.107.182.107.107 0 .14 0 .182-.107l.694-1.67.687 1.67c.05.107.099.107.19.107.124 0 .14-.016.182-.107Zm0 0"/></g><g ns11:alignment="middle center" ns11:inkscapeversion="1.4" ns11:jacobian_sqrt=".529" ns11:pdfconverter="inkscape" ns11:preamble="/Users/laci/Library/Application Support/org.inkscape.Inkscape/config/inkscape/extensions/textext/default_packages.tex" ns11:scale="1.5" ns11:texconverter="pdflatex" ns11:text="$\\rho = f \\tan(\\theta)$" ns11:version="1.11.0"><path d="M148.74 49.886c-.017.066-.017.074-.017.09 0 .075.058.141.149.141.107 0 .173-.099.182-.115.033-.042.198-.753.339-1.323.107.215.273.355.52.355.62 0 1.299-.744 1.299-1.53 0-.562-.347-.86-.728-.86-.512 0-1.066.53-1.224 1.175zm1.174-.968c-.372 0-.455-.421-.455-.47 0-.017.025-.125.041-.191.15-.595.199-.785.314-.992.232-.389.497-.505.654-.505.198 0 .363.158.363.521 0 .29-.148.877-.289 1.133-.174.34-.43.504-.628.504M156.377 47.248c.083 0 .182 0 .182-.099 0-.107-.099-.107-.173-.107h-3.159c-.074 0-.173 0-.173.107 0 .1.099.1.173.1zm.009 1.026c.074 0 .173 0 .173-.108 0-.1-.099-.1-.182-.1h-3.15c-.074 0-.173 0-.173.1 0 .108.099.108.173.108zM160.256 46.868h.455c.107 0 .157 0 .157-.108 0-.057-.05-.057-.14-.057h-.439l.107-.604c.025-.107.1-.48.133-.546.041-.099.132-.182.248-.182.016 0 .157 0 .256.1a.295.295 0 0 0-.29.28c0 .125.1.19.2.19.14 0 .289-.123.289-.322 0-.24-.24-.363-.455-.363-.182 0-.513.099-.67.62-.033.107-.05.165-.174.827h-.363c-.108 0-.166 0-.166.099 0 .066.05.066.15.066h.346l-.388 2.084c-.1.512-.19.992-.463.992-.025 0-.15 0-.257-.1.248-.016.298-.206.298-.28 0-.125-.1-.19-.198-.19-.14 0-.29.123-.29.322 0 .231.232.364.447.364.29 0 .504-.315.595-.513.174-.33.29-.968.298-1.009zM163.258 46.868h.76v-.165h-.76v-.968h-.133c0 .43-.157.992-.678 1.017v.116h.447v1.455c0 .645.496.711.686.711.372 0 .521-.372.521-.71v-.298h-.132v.289c0 .389-.157.587-.356.587-.355 0-.355-.48-.355-.57zM166.151 48.58c.025.206.165.43.413.43.116 0 .439-.075.439-.505v-.298h-.133v.298c0 .306-.132.34-.19.34-.174 0-.198-.24-.198-.266v-1.05c0-.223 0-.43-.19-.628a1 1 0 0 0-.72-.29c-.438 0-.802.249-.802.596 0 .157.108.248.248.248a.23.23 0 0 0 .24-.24c0-.066-.025-.24-.273-.24.149-.19.405-.248.57-.248.265 0 .563.207.563.678v.19c-.273.017-.637.034-.968.19-.396.183-.529.455-.529.687 0 .43.513.562.844.562a.73.73 0 0 0 .686-.455m-.033-.869v.53c0 .496-.38.677-.62.677-.257 0-.472-.181-.472-.446 0-.29.224-.728 1.092-.76M167.613 47.166v1.413c0 .232-.058.232-.413.232v.165c.19-.008.455-.016.603-.016.133 0 .405.008.587.016v-.165c-.355 0-.413 0-.413-.232v-.975c0-.546.38-.844.711-.844.339 0 .397.282.397.588v1.231c0 .232-.058.232-.413.232v.165c.181-.008.454-.016.595-.016.132 0 .413.008.587.016v-.165c-.273 0-.405 0-.405-.157v-1.009c0-.455 0-.612-.166-.802-.074-.09-.248-.198-.554-.198-.388 0-.636.223-.785.554v-.554l-.744.058v.165c.372 0 .413.033.413.298M171.708 50.241c0-.016 0-.024-.091-.115-.653-.662-.827-1.662-.827-2.473 0-.917.199-1.835.852-2.488.066-.066.066-.075.066-.091 0-.042-.017-.058-.05-.058-.058 0-.529.364-.843 1.033a3.9 3.9 0 0 0-.33 1.604c0 .414.057 1.05.346 1.654.323.645.77.992.827.992.033 0 .05-.016.05-.058M174.411 46.339c0-.347-.09-1.083-.628-1.083-.736 0-1.546 1.488-1.546 2.695 0 .496.148 1.083.628 1.083.744 0 1.546-1.513 1.546-2.695m-1.62.72c.09-.332.198-.753.413-1.134.14-.256.33-.554.57-.554.257 0 .29.34.29.637 0 .265-.041.53-.166 1.05zm1.058.173c-.058.24-.165.686-.372 1.066-.182.364-.38.62-.612.62-.174 0-.281-.157-.281-.644 0-.224.033-.53.165-1.042zM176.156 47.653c0-.405-.058-1.041-.348-1.645-.314-.645-.769-.992-.818-.992a.057.057 0 0 0-.058.058c0 .016 0 .025.1.124.52.52.818 1.356.818 2.455 0 .91-.19 1.836-.844 2.497-.074.067-.074.075-.074.091 0 .033.025.058.058.058.05 0 .529-.364.835-1.033.273-.579.33-1.166.33-1.613m0 0"/></g><path ns11:alignment="middle center" ns11:inkscapeversion="1.4" ns11:jacobian_sqrt=".529" ns11:pdfconverter="inkscape" ns11:preamble="/Users/laci/Library/Application Support/org.inkscape.Inkscape/config/inkscape/extensions/textext/default_packages.tex" ns11:scale="1.5" ns11:texconverter="pdflatex" ns11:text="$\\mathbf{p}$" ns11:version="1.11.0" d="M138.652 162.426c0-.099.008-.107.083-.182a.87.87 0 0 1 .603-.248c.348 0 .645.323.645.993 0 .744-.372 1.017-.71 1.017-.075 0-.323 0-.563-.29-.058-.066-.058-.074-.058-.173Zm0 1.53c.232.182.463.24.678.24.794 0 1.331-.48 1.331-1.207 0-.703-.48-1.2-1.24-1.2-.397 0-.678.166-.794.257v-.256l-.934.041v.248c.323 0 .364 0 .364.198v2.663h-.364v.248c.14-.008.463-.017.662-.017.206 0 .52.009.661.017v-.248h-.364ZM138.652 57.426c0-.099.008-.107.083-.181a.87.87 0 0 1 .603-.248c.348 0 .645.322.645.992 0 .744-.372 1.017-.71 1.017-.075 0-.323 0-.563-.29-.058-.066-.058-.074-.058-.173Zm0 1.53c.232.182.463.24.678.24.794 0 1.331-.48 1.331-1.207 0-.703-.48-1.2-1.24-1.2-.397 0-.678.166-.794.257v-.256l-.934.041v.248c.323 0 .364 0 .364.199v2.662h-.364v.248c.14-.008.463-.016.662-.016.206 0 .52.008.661.016v-.248h-.364Zm0 0"/><path ns11:alignment="middle center" ns11:inkscapeversion="1.4" ns11:jacobian_sqrt=".529" ns11:pdfconverter="inkscape" ns11:preamble="/Users/laci/Library/Application Support/org.inkscape.Inkscape/config/inkscape/extensions/textext/default_packages.tex" ns11:scale="1.5" ns11:texconverter="pdflatex" ns11:text="$L$" ns11:version="1.11.0" d="M51.987 26.167c.04-.19.057-.248.554-.248.157 0 .198 0 .198-.1 0-.066-.058-.066-.083-.066-.173 0-.603.017-.777.017-.157 0-.546-.017-.703-.017-.033 0-.099 0-.099.108 0 .058.05.058.149.058.008 0 .107 0 .198.008.091.016.14.016.14.09 0 .017 0 .034-.016.1l-.71 2.828c-.05.207-.059.248-.48.248-.091 0-.14 0-.14.107 0 .058.049.058.14.058h2.447c.124 0 .124 0 .157-.09l.422-1.142c.016-.058.016-.066.016-.074 0-.017-.016-.058-.057-.058-.05 0-.058.033-.091.116-.182.48-.414 1.083-1.323 1.083h-.612c-.058-.008-.075-.017-.075-.058 0-.017 0-.025.025-.116zM70.185 117.744c.041-.19.058-.248.554-.248.157 0 .198 0 .198-.1 0-.066-.057-.066-.082-.066-.174 0-.604.017-.777.017-.158 0-.546-.017-.703-.017-.033 0-.1 0-.1.108 0 .058.05.058.15.058.008 0 .107 0 .198.008.09.016.14.016.14.09 0 .017 0 .034-.016.1l-.711 2.828c-.05.207-.058.248-.48.248-.09 0-.14 0-.14.107 0 .058.05.058.14.058h2.448c.124 0 .124 0 .157-.09l.421-1.142c.017-.058.017-.066.017-.074 0-.017-.017-.058-.058-.058-.05 0-.058.033-.09.116-.183.48-.414 1.083-1.324 1.083h-.612c-.058-.008-.074-.017-.074-.058 0-.017 0-.025.025-.116zm0 0"/><path ns11:alignment="middle center" ns11:inkscapeversion="1.4" ns11:jacobian_sqrt=".529" ns11:pdfconverter="inkscape" ns11:preamble="/Users/laci/Library/Application Support/org.inkscape.Inkscape/config/inkscape/extensions/textext/default_packages.tex" ns11:scale="1.5" ns11:texconverter="pdflatex" ns11:text="$K$" ns11:version="1.11.0" d="M105.898 157.174a.3.3 0 0 1-.025-.074s.09-.075.149-.116l.926-.71c.496-.373.703-.39.86-.406.041-.008.09-.008.09-.108 0-.016-.016-.057-.057-.057-.116 0-.248.016-.372.016-.19 0-.397-.016-.587-.016-.033 0-.1 0-.1.107 0 .033.025.05.067.058.115.008.157.033.157.107 0 .1-.157.224-.19.248l-2.051 1.58.422-1.695c.04-.19.057-.24.438-.24.132 0 .182 0 .182-.108 0-.04-.042-.057-.075-.057-.149 0-.529.016-.678.016s-.52-.016-.678-.016c-.033 0-.107 0-.107.099 0 .066.05.066.157.066.066 0 .165.008.223.008.083.017.116.025.116.091 0 .017 0 .033-.017.1l-.71 2.827c-.05.207-.059.248-.48.248-.091 0-.15 0-.15.1 0 .066.067.066.084.066.148 0 .52-.017.67-.017.107 0 .223.008.338.008s.232.009.34.009c.04 0 .107 0 .107-.108 0-.058-.05-.058-.149-.058-.198 0-.339 0-.339-.09 0-.042.025-.158.041-.232.075-.281.15-.554.215-.835l.786-.612.612 1.422c.066.14.066.157.066.182 0 .165-.232.165-.281.165-.058 0-.116 0-.116.108 0 .058.066.058.074.058.215 0 .439-.017.645-.017.116 0 .405.017.521.017.025 0 .091 0 .091-.108 0-.058-.058-.058-.107-.058-.215 0-.282-.05-.364-.231zm0 0"/><g ns11:alignment="middle center" ns11:inkscapeversion="1.4" ns11:jacobian_sqrt=".529" ns11:pdfconverter="inkscape" ns11:preamble="/Users/laci/Library/Application Support/org.inkscape.Inkscape/config/inkscape/extensions/textext/default_packages.tex" ns11:scale="1.5" ns11:texconverter="pdflatex" ns11:text="$\\rho = 2f \\tan\\bigl(\\frac{\\theta}{2}\\bigr)$" ns11:version="1.11.0"><path d="M148.816 155.06c-.016.066-.016.074-.016.09 0 .075.058.141.149.141.107 0 .173-.099.182-.116.033-.04.198-.752.339-1.322.107.215.272.355.52.355.62 0 1.299-.744 1.299-1.53 0-.562-.348-.86-.728-.86-.513 0-1.067.53-1.224 1.175zm1.174-.968c-.372 0-.454-.421-.454-.471 0-.017.025-.124.041-.19.149-.595.199-.786.314-.992.232-.389.496-.505.653-.505.199 0 .364.157.364.521 0 .29-.149.877-.29 1.133-.173.339-.43.504-.628.504M156.454 152.422c.083 0 .182 0 .182-.1 0-.107-.1-.107-.174-.107h-3.158c-.074 0-.174 0-.174.108 0 .1.1.1.174.1zm.008 1.025c.075 0 .174 0 .174-.107 0-.1-.1-.1-.182-.1h-3.15c-.074 0-.174 0-.174.1 0 .107.1.107.174.107zM159.069 153.745l.562-.546c.819-.727 1.133-1.008 1.133-1.538 0-.603-.472-1.025-1.116-1.025a.975.975 0 0 0-.984.96c0 .289.264.289.28.289.092 0 .274-.058.274-.281 0-.133-.1-.273-.282-.273-.04 0-.05 0-.066.008.116-.347.405-.537.711-.537.48 0 .703.43.703.86 0 .421-.256.835-.554 1.165l-1.009 1.125c-.057.058-.057.074-.057.198h1.96l.14-.918h-.124c-.033.158-.066.389-.124.472-.033.041-.38.041-.496.041ZM162.968 152.042h.455c.108 0 .157 0 .157-.108 0-.058-.05-.058-.14-.058h-.438l.107-.603c.025-.108.1-.48.132-.546.042-.1.133-.182.248-.182.017 0 .157 0 .257.1a.295.295 0 0 0-.29.28c0 .125.1.19.199.19.14 0 .29-.123.29-.322 0-.24-.24-.364-.456-.364-.182 0-.512.1-.67.62-.032.108-.049.166-.173.827h-.364c-.107 0-.165 0-.165.1 0 .066.05.066.149.066h.347l-.389 2.083c-.099.513-.19.993-.463.993-.024 0-.148 0-.256-.1.248-.016.298-.206.298-.28 0-.125-.1-.19-.199-.19-.14 0-.29.123-.29.322 0 .231.232.363.447.363.29 0 .505-.314.596-.512.173-.331.289-.968.297-1.009zM165.97 152.042h.76v-.166h-.76v-.967h-.132c0 .43-.157.992-.678 1.017v.116h.446v1.455c0 .645.496.711.687.711.372 0 .52-.372.52-.711v-.298h-.132v.29c0 .388-.157.587-.355.587-.356 0-.356-.48-.356-.57zM168.864 153.753c.024.207.165.43.413.43.116 0 .438-.074.438-.504v-.298h-.132v.298c0 .306-.132.339-.19.339-.174 0-.199-.24-.199-.265v-1.05c0-.223 0-.43-.19-.628a1 1 0 0 0-.72-.29c-.437 0-.801.249-.801.596 0 .157.107.248.248.248a.23.23 0 0 0 .24-.24c0-.066-.025-.24-.273-.24.149-.19.405-.248.57-.248.265 0 .562.207.562.678v.19c-.272.017-.636.033-.967.19-.397.182-.53.455-.53.687 0 .43.514.562.844.562a.73.73 0 0 0 .687-.455m-.034-.868v.53c0 .495-.38.677-.62.677-.256 0-.47-.182-.47-.446 0-.29.222-.728 1.09-.76M170.326 152.34v1.413c0 .232-.058.232-.414.232v.165c.19-.008.455-.016.604-.016.132 0 .405.008.587.016v-.165c-.356 0-.413 0-.413-.232v-.975c0-.546.38-.844.71-.844.34 0 .398.281.398.587v1.232c0 .232-.058.232-.414.232v.165c.182-.008.455-.016.595-.016.133 0 .414.008.587.016v-.165c-.272 0-.405 0-.405-.157v-1.009c0-.455 0-.612-.165-.802-.074-.091-.248-.198-.554-.198-.389 0-.637.223-.785.554v-.554l-.745.057v.166c.372 0 .414.033.414.297M174.85 155.94a.1.1 0 0 0-.016-.05c-.24-.256-.604-.685-.827-1.545a6.6 6.6 0 0 1-.165-1.513c0-1.39.33-2.357.967-3.043.041-.05.041-.058.041-.066 0-.058-.04-.058-.057-.058-.083 0-.364.322-.43.397-.546.645-.885 1.587-.885 2.77 0 .744.132 1.802.827 2.695.05.066.388.463.488.463.016 0 .057 0 .057-.05M177.61 150.28c0-.389-.149-.802-.512-.802-.554 0-1.141.992-1.141 1.836 0 .438.173.793.512.793.554 0 1.141-1 1.141-1.827m-1.24.447c.19-.794.513-1.141.728-1.141.231 0 .231.405.231.47 0 .15-.025.365-.1.67zm.827.132c-.108.405-.19.603-.306.785-.108.19-.256.364-.422.364-.198 0-.231-.281-.231-.48 0-.24.066-.529.099-.67zM175.725 152.727h2.12v.21h-2.12zM177.595 155.298h-.124c-.008.083-.05.298-.099.33-.025.026-.306.026-.364.026h-.678c.389-.34.521-.447.736-.62.273-.215.53-.447.53-.794 0-.447-.39-.72-.86-.72-.455 0-.77.323-.77.662 0 .182.158.207.199.207.083 0 .19-.067.19-.199 0-.066-.025-.198-.215-.198a.59.59 0 0 1 .538-.34c.372 0 .562.29.562.588 0 .322-.232.57-.347.703l-.885.884c-.041.033-.041.042-.041.14h1.52zM180.091 152.832c0-.745-.132-1.811-.827-2.696-.05-.066-.397-.471-.488-.471-.024 0-.066.016-.066.058q-.001.024.033.05c.257.272.596.702.81 1.545.125.48.174 1.017.174 1.514 0 .529-.05 1.066-.19 1.587a3.4 3.4 0 0 1-.777 1.455c-.05.05-.05.058-.05.066 0 .042.042.05.066.05.075 0 .364-.314.43-.389.538-.644.885-1.587.885-2.77m0 0"/></g></svg>